<svg width="27" height="35" fill="none" xmlns="http://www.w3.org/2000/svg"><path d="M5.063 29.75h16.875a8.757 8.757 0 0 0-1.266-3.938 8.256 8.256 0 0 0-2.869-2.843l1.603-2.975a.616.616 0 0 0 .042-.394.396.396 0 0 0-.253-.306.506.506 0 0 0-.357-.044.387.387 0 0 0-.276.219l-1.645 3.062a10.884 10.884 0 0 0-1.687-.547 7.618 7.618 0 0 0-1.73-.197c-.59 0-1.167.066-1.73.197-.562.131-1.125.314-1.687.547L8.437 19.47c-.056-.146-.147-.219-.273-.219-.127 0-.26.03-.401.087l-.17.657 1.604 2.975a8.256 8.256 0 0 0-2.869 2.843 8.756 8.756 0 0 0-1.266 3.938Zm4.64-2.625a.796.796 0 0 1-.59-.262.855.855 0 0 1-.254-.613c0-.233.085-.438.254-.613a.796.796 0 0 1 1.18 0c.17.175.254.38.254.613a.855.855 0 0 1-.253.613.796.796 0 0 1-.59.262Zm7.594 0a.796.796 0 0 1-.59-.262.855.855 0 0 1-.254-.613c0-.233.085-.438.253-.613a.796.796 0 0 1 1.181 0c.17.175.254.38.254.613a.855.855 0 0 1-.253.613.796.796 0 0 1-.591.262ZM3.375 35c-.928 0-1.722-.342-2.383-1.027C.331 33.287 0 32.463 0 31.5v-28c0-.962.33-1.787.992-2.473C1.652.342 2.447 0 3.375 0h12.108a3.277 3.277 0 0 1 2.363 1.006l8.184 8.488c.31.32.548.692.717 1.114.169.424.253.87.253 1.336V31.5c0 .962-.33 1.787-.99 2.473-.662.685-1.457 1.027-2.385 1.027H3.375Zm11.813-24.5v-7H3.374v28h20.25V12.25h-6.75a1.6 1.6 0 0 1-1.201-.504c-.324-.335-.486-.75-.486-1.246Zm-11.813-7v8.75V3.5v28-28Z" fill="#fff"/></svg>