<svg width="32" height="32" fill="none" xmlns="http://www.w3.org/2000/svg"><path d="M31.978 6.892a.985.985 0 0 0-.04-.2C31.782 5.74 30.994 5 30 5H2C1.006 5 .218 5.74.062 6.692a.985.985 0 0 0-.04.2C.02 6.93 0 6.962 0 7v18c0 .038.02.072.022.11a.966.966 0 0 0 .04.198C.216 26.258 1.006 27 2 27h28c.994 0 1.784-.742 1.938-1.694a.966.966 0 0 0 .04-.198c.002-.036.022-.07.022-.108V7c0-.038-.02-.07-.022-.108ZM29.308 7l-11.1 8.14L16 16.76l-2.206-1.618s-.002 0-.002-.002L2.692 7h26.616ZM2 8.974l9.584 7.028L2 23.028V8.974ZM2.692 25l10.584-7.758 2.132 1.564a.994.994 0 0 0 1.184 0l2.132-1.564L29.308 25H2.692ZM30 23.028l-9.584-7.026L30 8.974v14.054Z" fill="#BCBFBF"/></svg>