<svg viewBox="0 0 506 150" fill="none" xmlns="http://www.w3.org/2000/svg"><path d="M0 20C0 8.954 8.954 0 20 0h466c11.046 0 20 8.954 20 20v110c0 11.046-8.954 20-20 20H20c-11.046 0-20-8.954-20-20V20Z" fill="#000"/><path fill-rule="evenodd" clip-rule="evenodd" d="M0 130V20C0 8.954 8.954 0 20 0h466c11.046 0 20 8.954 20 20v110c0 11.046-8.954 20-20 20H20c-11.046 0-20-8.954-20-20Zm3 0V20c0-9.389 7.611-17 17-17h466c9.389 0 17 7.611 17 17v110c0 9.389-7.611 17-17 17H20c-9.389 0-17-7.611-17-17Z" fill="#fff" fill-opacity=".3"/><path d="M106.692 91.082c11.981-6.639 21.064-11.697 21.847-12.09 2.504-1.345 5.091-4.902 0-7.665-1.643-.869-10.493-5.77-21.847-12.09l-15.739 16.04 15.738 15.805h.001Z" fill="#FFD900"/><path d="M90.953 75.277 40.837 126.25c1.175.158 2.504-.157 4.07-1.026 3.288-1.815 38.135-21.021 61.786-34.138l-15.74-15.809Z" fill="#F43249"/><path d="m90.953 75.277 15.738-15.963S48.432 27.228 44.906 25.335c-1.326-.796-2.815-1.031-4.146-.796l50.193 50.737v.001Z" fill="#00EE76"/><path d="M90.953 75.277 40.76 24.54C38.722 25.015 37 26.832 37 30.545v89.699c0 3.4 1.332 5.849 3.836 6.085l50.116-51.052h.001Z" fill="#00D3FF"/><path d="M256.385 81.49c-9.005 0-16.445 7.032-16.445 16.674 0 9.563 7.362 16.674 16.446 16.674 9.082 0 16.443-7.033 16.443-16.674 0-9.642-7.361-16.674-16.444-16.674Zm0 26.713c-4.935 0-9.239-4.19-9.239-10.114 0-6.006 4.308-10.113 9.239-10.113 4.931 0 9.238 4.107 9.238 10.113 0 5.924-4.307 10.114-9.238 10.114ZM220.598 81.49c-9.083 0-16.445 7.032-16.445 16.674 0 9.563 7.362 16.674 16.445 16.674s16.445-7.033 16.445-16.674c0-9.642-7.362-16.674-16.445-16.674Zm0 26.713c-4.935 0-9.238-4.19-9.238-10.114 0-6.006 4.307-10.113 9.238-10.113 4.935 0 9.239 4.107 9.239 10.113 0 5.924-4.23 10.114-9.239 10.114Zm-42.521-21.576v7.032h16.6c-.472 3.95-1.799 6.875-3.758 8.852-2.427 2.449-6.186 5.137-12.842 5.137-10.26 0-18.166-8.376-18.166-18.73 0-10.352 7.911-18.887 18.166-18.887 5.558 0 9.554 2.214 12.53 5.06l4.931-4.98c-4.152-4.03-9.71-7.111-17.461-7.111-14.019 0-25.765 11.615-25.765 25.761 0 14.148 11.746 25.763 25.765 25.763 7.595 0 13.235-2.528 17.776-7.272 4.62-4.662 6.03-11.223 6.03-16.517 0-1.659-.156-3.16-.393-4.426l-23.413.318Zm173.999 5.452c-1.332-3.715-5.558-10.59-14.018-10.59s-15.428 6.719-15.428 16.675c0 9.323 6.968 16.674 16.211 16.674 7.517 0 11.825-4.662 13.625-7.351l-5.558-3.793c-1.881 2.768-4.386 4.583-8.067 4.583s-6.263-1.659-7.91-5.058l21.847-9.245-.702-1.895Zm-22.24 5.613c-.155-6.403 4.935-9.72 8.534-9.72 2.898 0 5.247 1.422 6.107 3.557l-14.641 6.163Zm-17.776 16.041h7.205V64.894h-7.205v48.839Zm-11.744-28.529h-.234c-1.643-1.977-4.697-3.714-8.615-3.714-8.223 0-15.662 7.35-15.662 16.674 0 9.323 7.517 16.596 15.662 16.596 3.914 0 6.968-1.739 8.615-3.794h.234v2.37c0 6.404-3.369 9.799-8.771 9.799-4.386 0-7.128-3.239-8.223-5.927l-6.262 2.688c1.799 4.426 6.578 9.878 14.485 9.878 8.456 0 15.584-5.058 15.584-17.306V82.516h-6.813v2.688Zm-8.222 22.999c-4.935 0-9.083-4.19-9.083-10.035s4.152-10.114 9.083-10.114c4.857 0 8.771 4.269 8.771 10.114-.003 5.766-3.918 10.035-8.771 10.035Zm93.576-43.308h-17.227v48.838h7.206V95.239h10.021c7.989 0 15.818-5.85 15.818-15.172 0-9.323-7.829-15.173-15.818-15.173v.001Zm.233 23.552h-10.181V71.69h10.181c5.325 0 8.457 4.505 8.457 8.376-.074 3.793-3.128 8.381-8.457 8.381Zm44.326-7.036c-5.169 0-10.572 2.292-12.765 7.508l6.345 2.688c1.411-2.688 3.915-3.557 6.579-3.557 3.759 0 7.517 2.291 7.595 6.32v.476c-1.332-.79-4.07-1.898-7.517-1.898-6.89 0-13.863 3.872-13.863 10.986 0 6.56 5.641 10.747 11.904 10.747 4.856 0 7.517-2.213 9.161-4.82h.234v3.794h6.967V94.924c-.077-8.612-6.418-13.514-14.64-13.514Zm-.861 26.713c-2.349 0-5.64-1.187-5.64-4.108 0-3.793 4.07-5.216 7.595-5.216 3.131 0 4.62.712 6.579 1.659-.549 4.505-4.386 7.665-8.534 7.665Zm40.64-25.604-8.223 21.099h-.234l-8.533-21.1h-7.751l12.841 29.555-7.284 16.517h7.517l19.654-46.072h-7.988l.001.001Zm-64.524 31.213h7.205V64.894h-7.205v48.839ZM166.472 49.512c-2.176 0-4.181-.523-6.016-1.568a11.901 11.901 0 0 1-4.384-4.288c-1.067-1.835-1.6-3.872-1.6-6.112s.533-4.267 1.6-6.08a11.825 11.825 0 0 1 4.384-4.32c1.835-1.045 3.84-1.568 6.016-1.568 1.728 0 3.339.31 4.832.928 1.493.619 2.741 1.483 3.744 2.592l-2.496 2.496a7.58 7.58 0 0 0-2.688-1.92c-1.024-.448-2.165-.672-3.424-.672a8.431 8.431 0 0 0-4.128 1.056c-1.28.704-2.304 1.707-3.072 3.008-.768 1.301-1.152 2.795-1.152 4.48 0 1.685.384 3.179 1.152 4.48.768 1.301 1.792 2.304 3.072 3.008a8.494 8.494 0 0 0 4.16 1.056c1.365 0 2.507-.203 3.424-.608a8.695 8.695 0 0 0 2.464-1.632c.469-.47.864-1.056 1.184-1.76a7.418 7.418 0 0 0 .672-2.304h-7.776v-3.2h11.168c.107.597.16 1.216.16 1.856 0 1.45-.224 2.848-.672 4.192a8.83 8.83 0 0 1-2.144 3.456c-2.155 2.283-4.981 3.424-8.48 3.424ZM181.105 26.088h13.92v3.424h-10.336v6.336h9.312v3.392h-9.312v6.336h10.336V49h-13.92V26.088ZM203.32 29.512h-6.4v-3.424h16.384v3.424h-6.4V49h-3.584V29.512ZM222.674 26.088h3.584V49h-3.584V26.088ZM235.326 29.512h-6.4v-3.424h16.384v3.424h-6.4V49h-3.584V29.512ZM264.775 49.512c-2.218 0-4.234-.523-6.048-1.568a11.667 11.667 0 0 1-4.288-4.352c-1.024-1.835-1.536-3.85-1.536-6.048 0-2.197.512-4.203 1.536-6.016a11.667 11.667 0 0 1 4.288-4.352c1.814-1.067 3.83-1.6 6.048-1.6 2.219 0 4.224.533 6.016 1.6a11.652 11.652 0 0 1 4.288 4.352c1.046 1.813 1.568 3.819 1.568 6.016s-.522 4.213-1.568 6.048a11.417 11.417 0 0 1-4.256 4.352c-1.813 1.045-3.829 1.568-6.048 1.568Zm0-3.424c1.515 0 2.902-.363 4.16-1.088a7.898 7.898 0 0 0 2.976-3.008c.726-1.301 1.088-2.784 1.088-4.448 0-1.664-.362-3.136-1.088-4.416a7.836 7.836 0 0 0-2.976-3.04c-1.258-.725-2.645-1.088-4.16-1.088-1.514 0-2.901.363-4.16 1.088-1.258.725-2.261 1.739-3.008 3.04-.725 1.28-1.088 2.752-1.088 4.416 0 1.664.363 3.147 1.088 4.448A8.146 8.146 0 0 0 260.615 45c1.259.725 2.646 1.088 4.16 1.088ZM279.943 26.088h4.256l10.24 16.672h.192l-.192-4.416V26.088h3.552V49h-3.744l-10.752-17.536h-.192l.192 4.416V49h-3.552V26.088Z" fill="#fff"/></svg>