<svg viewBox="0 0 901 300" width="150" height="50" fill="none" xmlns="http://www.w3.org/2000/svg"><rect x="3.556" y="3" width="894" height="294" rx="41" fill="#000"/><path d="m199.776 185.577 16.272 4.065c7.367 1.84 14.508-3.703 14.508-11.261V99.987c0-6.654-4.547-12.456-11.033-14.076l-46.652-11.654c-7.367-1.84-14.508 3.703-14.508 11.26V99.65l-29.394-7.343c-7.367-1.84-14.509 3.703-14.509 11.261V117.7l-29.395-7.343c-7.367-1.84-14.509 3.703-14.509 11.261v78.394c0 6.654 4.548 12.456 11.034 14.076l46.651 11.654c7.367 1.84 14.509-3.703 14.509-11.261l.012-78.289c0-6.613-4.186-10.438-5.704-11.613a.701.701 0 0 1-.162-.944.826.826 0 0 1 .917-.333c6.147 1.856 12.029 8.158 12.616 16.082l2.029 59.869a4.743 4.743 0 0 0 3.168 4.313l16.519 4.126c7.367 1.841 14.509-3.703 14.509-11.261l.012-78.271c0-6.614-4.178-10.448-5.696-11.623a.703.703 0 0 1-.162-.944.828.828 0 0 1 .918-.333c6.147 1.856 12.029 8.158 12.616 16.082l2.029 59.865a4.716 4.716 0 0 0 3.405 4.37ZM391.831 245h-16.76l-26.593-37.121h-13.99V245h-14.266v-97.649h34.35c6.648 0 12.604 1.293 17.868 3.878 5.263 2.586 9.326 6.187 12.188 10.804 2.955 4.525 4.433 9.742 4.433 15.651 0 7.388-2.263 13.713-6.787 18.976-4.525 5.171-10.573 8.588-18.145 10.25L391.831 245Zm-57.343-84.491v34.351h20.084c5.91 0 10.665-1.57 14.266-4.71 3.694-3.232 5.541-7.387 5.541-12.466 0-5.078-1.847-9.187-5.541-12.327-3.601-3.232-8.356-4.848-14.266-4.848h-20.084Zm95.198 85.876c-5.078 0-9.649-1.246-13.712-3.74-4.063-2.585-7.249-6.094-9.557-10.526-2.309-4.525-3.463-9.604-3.463-15.236v-43.492h13.574v42.384c0 5.448 1.523 9.88 4.571 13.296 3.047 3.417 6.971 5.125 11.773 5.125 4.986 0 9.142-1.754 12.466-5.263s4.986-7.895 4.986-13.158v-42.384h13.574V245h-9.696l-3.185-10.804c-2.309 3.879-5.356 6.88-9.142 9.003-3.694 2.124-7.756 3.186-12.189 3.186Zm84.815 0c-8.957 0-16.76-2.308-23.409-6.925-6.556-4.71-11.034-11.081-13.435-19.115l13.712-2.216c2.678 5.171 5.864 9.003 9.558 11.496 3.693 2.401 8.218 3.602 13.574 3.602 5.448 0 9.88-1.201 13.296-3.602 3.417-2.493 5.125-5.863 5.125-10.111 0-3.139-.969-5.771-2.908-7.895-1.847-2.124-4.202-3.832-7.064-5.125-2.863-1.292-6.603-2.724-11.22-4.293-6.186-2.032-11.265-4.063-15.236-6.095-3.97-2.031-7.341-4.894-10.111-8.587-2.678-3.786-4.017-8.588-4.017-14.405 0-5.448 1.339-10.204 4.017-14.267 2.77-4.155 6.556-7.341 11.358-9.557 4.802-2.216 10.157-3.324 16.067-3.324 8.218 0 15.282 2.17 21.192 6.51 5.91 4.247 10.111 10.111 12.604 17.59l-13.435 2.217c-1.847-4.248-4.479-7.48-7.895-9.696-3.417-2.309-7.434-3.463-12.05-3.463-4.987 0-9.096 1.201-12.328 3.601-3.232 2.309-4.848 5.495-4.848 9.558 0 3.047.924 5.632 2.771 7.756 1.939 2.124 4.293 3.832 7.064 5.125 2.862 1.293 6.648 2.77 11.357 4.432 6.002 2.032 10.989 4.109 14.959 6.233 4.063 2.032 7.48 4.94 10.25 8.726 2.77 3.786 4.155 8.542 4.155 14.267 0 5.54-1.477 10.388-4.432 14.543-2.863 4.155-6.833 7.387-11.912 9.696-4.986 2.216-10.573 3.324-16.759 3.324Zm90.441-13.297L603.695 245h-12.604c-7.48 0-13.159-1.847-17.037-5.54-3.878-3.694-5.817-9.003-5.817-15.929v-38.09h-12.328v-12.05h12.328l3.74-20.777h9.834v20.777h21.884v12.05h-21.884v38.09c0 6.371 3.093 9.557 9.28 9.557h13.851Zm45.266 13.297c-7.294 0-13.804-1.57-19.529-4.709-5.726-3.14-10.204-7.526-13.436-13.159-3.232-5.632-4.848-12.05-4.848-19.252 0-7.203 1.616-13.621 4.848-19.253 3.232-5.633 7.71-10.019 13.436-13.159 5.725-3.232 12.235-4.847 19.529-4.847 7.295 0 13.805 1.615 19.53 4.847 5.725 3.14 10.204 7.526 13.436 13.159 3.231 5.632 4.847 12.05 4.847 19.253 0 7.202-1.616 13.62-4.847 19.252-3.232 5.633-7.711 10.019-13.436 13.159-5.725 3.139-12.235 4.709-19.53 4.709Zm0-12.466c7.018 0 12.697-2.262 17.037-6.787 4.432-4.524 6.648-10.48 6.648-17.867 0-7.388-2.216-13.344-6.648-17.868-4.34-4.617-10.019-6.926-17.037-6.926-7.017 0-12.696 2.309-17.036 6.926-4.34 4.524-6.51 10.48-6.51 17.868 0 7.294 2.17 13.25 6.51 17.867 4.34 4.525 10.019 6.787 17.036 6.787ZM702.578 245v-71.609h9.834l2.909 10.249c2.124-3.601 4.755-6.186 7.895-7.756 3.139-1.662 6.879-2.493 11.219-2.493h3.324l1.108 13.02h-7.756c-4.987 0-8.726 1.431-11.219 4.293-2.494 2.863-3.74 6.741-3.74 11.635V245h-13.574Zm113.891-36.289c0 1.846-.046 3.278-.138 4.293h-59.144c.739 6.372 3.232 11.45 7.48 15.236 4.248 3.786 9.649 5.679 16.205 5.679 4.525 0 8.542-.877 12.051-2.631 3.601-1.847 6.325-4.248 8.172-7.203l12.743 2.078c-2.77 6.463-7.249 11.45-13.436 14.959-6.094 3.509-12.881 5.263-20.361 5.263-7.11 0-13.481-1.57-19.114-4.709-5.633-3.232-10.019-7.664-13.158-13.297-3.14-5.633-4.71-12.004-4.71-19.114 0-7.203 1.57-13.621 4.71-19.253 3.139-5.633 7.479-10.019 13.02-13.159 5.54-3.232 11.865-4.847 18.975-4.847 7.018 0 13.297 1.615 18.838 4.847 5.632 3.14 10.019 7.526 13.158 13.159 3.14 5.54 4.709 11.773 4.709 18.699Zm-36.705-24.655c-5.448 0-10.157 1.616-14.128 4.848-3.878 3.232-6.463 7.572-7.756 13.02h43.769c-1.201-5.356-3.786-9.65-7.757-12.882-3.878-3.324-8.587-4.986-14.128-4.986ZM320.009 118.509v-17.651h1.164c1.509 0 2.715-.367 3.621-1.1.905-.732 1.659-2.198 2.263-4.396.646-2.242 1.142-5.54 1.487-9.893l1.875-24.053h28.708v39.442h6.66v17.651h-6.66V107h-32.458v11.509h-6.66Zm32.458-17.651v-33.3h-15.906l-1.357 18.234c-.518 7.285-1.854 12.307-4.009 15.066h21.272Zm34.49 6.789c-3.405 0-6.444-.733-9.117-2.199-2.672-1.465-4.763-3.513-6.272-6.142-1.508-2.63-2.263-5.626-2.263-8.988 0-3.362.755-6.358 2.263-8.987 1.509-2.63 3.6-4.677 6.272-6.143 2.673-1.508 5.712-2.263 9.117-2.263 3.405 0 6.444.755 9.117 2.263 2.672 1.466 4.763 3.513 6.271 6.143 1.509 2.63 2.263 5.625 2.263 8.987s-.754 6.358-2.263 8.988c-1.508 2.629-3.599 4.677-6.271 6.142-2.673 1.466-5.712 2.199-9.117 2.199Zm0-5.82c3.276 0 5.927-1.056 7.953-3.168 2.069-2.112 3.103-4.892 3.103-8.34 0-3.45-1.034-6.23-3.103-8.341-2.026-2.156-4.677-3.233-7.953-3.233-3.276 0-5.927 1.077-7.953 3.233-2.026 2.112-3.039 4.892-3.039 8.34 0 3.406 1.013 6.186 3.039 8.341 2.026 2.112 4.677 3.168 7.953 3.168Zm39.835 5.82c-3.319 0-6.315-.733-8.987-2.199-2.63-1.508-4.677-3.578-6.143-6.207-1.465-2.63-2.198-5.604-2.198-8.923 0-3.362.733-6.358 2.198-8.987a15.591 15.591 0 0 1 6.143-6.143c2.629-1.508 5.625-2.263 8.987-2.263 3.578 0 6.768.862 9.569 2.587 2.845 1.724 4.871 4.203 6.078 7.435l-5.948.97c-.776-1.552-2.005-2.802-3.686-3.75-1.638-.948-3.513-1.422-5.625-1.422-3.276 0-5.948 1.077-8.018 3.233-2.025 2.155-3.038 4.935-3.038 8.34 0 3.406 1.013 6.186 3.038 8.341 2.07 2.112 4.742 3.168 8.018 3.168 2.198 0 4.138-.495 5.819-1.487 1.724-.991 2.974-2.306 3.75-3.944l5.949.97c-1.207 3.276-3.276 5.819-6.207 7.63-2.888 1.767-6.121 2.651-9.699 2.651Zm35.469-.647h-6.336V79.391h-11.574v-5.819h29.484v5.82h-11.574V107Zm41.509-33.428h6.53l-13.966 38.471c-1.034 2.888-2.392 4.979-4.073 6.272-1.681 1.293-3.923 1.94-6.724 1.94h-4.979l-.582-5.819h5.949c1.25 0 2.219-.281 2.909-.841.69-.517 1.272-1.444 1.746-2.78l.711-1.94-14.871-35.303h6.789l10.604 25.798h.905l9.052-25.798ZM522.367 107h-6.337V73.572h28.45V107h-6.337V79.391h-15.776V107Zm53.29-19.785V73.572h6.337V107h-6.337V93.034h-16.1V107h-6.336V73.572h6.336v13.643h16.1Zm30.782 20.432c-3.405 0-6.444-.733-9.116-2.199-2.673-1.465-4.764-3.513-6.272-6.142-1.509-2.63-2.263-5.626-2.263-8.988 0-3.362.754-6.358 2.263-8.987 1.508-2.63 3.599-4.677 6.272-6.143 2.672-1.508 5.711-2.263 9.116-2.263 3.406 0 6.444.755 9.117 2.263 2.673 1.466 4.763 3.513 6.272 6.143 1.508 2.63 2.263 5.625 2.263 8.987s-.755 6.358-2.263 8.988c-1.509 2.629-3.599 4.677-6.272 6.142-2.673 1.466-5.711 2.199-9.117 2.199Zm0-5.82c3.276 0 5.927-1.056 7.953-3.168 2.069-2.112 3.104-4.892 3.104-8.34 0-3.45-1.035-6.23-3.104-8.341-2.026-2.156-4.677-3.233-7.953-3.233-3.276 0-5.927 1.077-7.953 3.233-2.026 2.112-3.039 4.892-3.039 8.34 0 3.406 1.013 6.186 3.039 8.341 2.026 2.112 4.677 3.168 7.953 3.168Zm62.157-12.35c1.725.647 3.104 1.703 4.139 3.169 1.077 1.422 1.616 3.104 1.616 5.043a7.937 7.937 0 0 1-1.552 4.785c-.991 1.422-2.392 2.543-4.203 3.362-1.81.776-3.879 1.164-6.207 1.164h-15.97V73.572h15.388c2.199 0 4.16.388 5.884 1.164 1.724.776 3.061 1.832 4.009 3.168.991 1.336 1.487 2.867 1.487 4.59 0 1.639-.409 3.061-1.228 4.268-.776 1.164-1.897 2.07-3.363 2.716ZM652.755 78.94v8.211h9.052c1.466 0 2.673-.366 3.621-1.1.949-.775 1.423-1.766 1.423-2.973 0-1.207-.474-2.199-1.423-2.975-.948-.776-2.155-1.163-3.621-1.163h-9.052Zm9.634 22.694c1.681 0 3.039-.431 4.074-1.293 1.034-.862 1.552-1.983 1.552-3.362 0-1.38-.518-2.5-1.552-3.362-1.035-.862-2.393-1.293-4.074-1.293h-9.634v9.31h9.634Z" fill="#fff"/><rect x="3.556" y="3" width="894" height="294" rx="41" stroke="#ABABAB" stroke-width="6"/></svg>