<svg version="1.0" xmlns="http://www.w3.org/2000/svg" width="609.333" height="609.333" viewBox="0 0 457 457"><path d="M21.8.7c-1.6.2-2.8.9-2.8 1.4 0 .6-.4.7-1 .4-.5-.3-1-.2-1 .4 0 .6-1.1 1.3-2.5 1.7-1.4.3-3 1.5-3.6 2.5-.5 1.1-1.3 1.8-1.7 1.5-.8-.5-3.4 2.1-3 2.9.2.3-.7 1.7-2 3-1.6 1.6-1.9 2.5-1 2.8 1 .4 1 .6.1.6-.7.1-1.3 1-1.3 2.2 0 1.2-.4 1.7-1.1 1.3-.8-.4-.8 0 0 1.5.7 1.1.8 2.1.3 2.1-.4 0-.8 91.9-.7 204.2 0 163.5.3 204.7 1.3 206.5.7 1.3.9 2.3.5 2.3s.2.7 1.3 1.6c1 .8 1.3 1.2.6.9-.8-.4-.3.9 1 2.9s2.6 3.6 3 3.6c.5 0 1.7.8 2.7 1.8 3.9 3.4 5 4.2 6.6 4.2.8 0 1.5.5 1.5 1.1 0 .5.5.7 1 .4.6-.4 1.7-.1 2.5.5s1.9.9 2.5.5c.5-.3 1-.2 1 .2 0 .5 59.3.9 134.4.9l134.5-.1 4.4-4.8c2.5-2.6 4.9-4.7 5.6-4.7.6 0 1-.3.9-.8-.4-.9 19.5-20.8 20.5-20.4.4.1.7-.5.7-1.3s.5-1.5 1-1.5c.6 0 1-.5 1-1 0-.6 1.4-2.4 3-4 1.7-1.6 3-2.7 3-2.5 0 .3.9-.3 1.9-1.2 1.1-.9 1.8-2 1.5-2.5-.3-.5-.2-.7.3-.6.5.2 2.9-1.7 5.3-4.2 2.5-2.5 5.8-5.6 7.4-6.8 1.6-1.2 2.6-2.2 2.2-2.2-.4 0 1.9-2.6 5-5.8 3.2-3.1 6.1-5.6 6.6-5.5.4.2.8-.1.8-.7 0-.5 2.8-3.7 6.3-7.1 3.4-3.4 6.1-6.6 6-7-.2-.5.1-.8.5-.6 1 .3 16.8-15.5 16.4-16.5-.1-.5.2-.7.6-.5.5.1 3.4-2.4 6.5-5.6 3.1-3.1 6.1-5.7 6.7-5.7.5 0 .9-.3.8-.8-.4-1.1 9.9-11.1 10.8-10.4.4.4.4.2.1-.4-.7-1.2 2.8-4.6 3.8-3.6.4.4.5.2.3-.3-.3-1.2 12.3-14.1 13.5-13.7.4.1.7-.3.7-.9 0-1.2 8.8-9.9 10.1-9.9.5 0 .8-.4.6-.8-.1-.4 1.3-2.2 3.1-4l3.2-3.1V156c0-96-.4-139-1.1-139-.5 0-.7-.5-.4-1 .3-.6.1-1-.5-1s-.8-.5-.5-1.1c.4-.6-.3-1.3-1.5-1.6-1.6-.4-1.8-.8-.9-1.4 1-.6.9-1-.6-1.5-1.1-.5-2.9-1.8-4.1-3.1-1.1-1.2-2.4-2-2.7-1.6-.4.3-.7.1-.7-.5 0-.7-.9-1.2-2-1.2s-2-.4-2-.8-.8-.9-1.7-1.1C434.7.6 25 .2 21.8.7z"/></svg>