<svg version="1.0" xmlns="http://www.w3.org/2000/svg" viewBox="0 0 1280 1280"><path d="M547.9 374.5c-9.2 2.5-19.1 6.9-20.6 9.1-1.3 2.1-1.2 3.2.6 10.4 2.4 9 10.5 32.3 17.5 50 2.5 6.3 4.6 11.8 4.6 12.3 0 .4-5.4-2-12-5.3-12.9-6.5-14.6-6.7-20.2-2.8-3.4 2.3-7.8 11.2-7.8 15.7 0 6.6 9.7 13.6 39.2 28.2l14.7 7.3 5 11.1c8.7 19.6 34.5 87 33.9 88.6-.2.4-5.9-1.9-12.8-5.1-8.7-4.1-13.1-6.7-14.3-8.7-4.5-6.8-10.3-20.6-21.3-51.1-2.3-6.2-4.4-6.7-15.6-3.7-11.6 3-13.3 4.6-12.4 12.3.3 2.9 2 9.4 3.6 14.4 1.6 5.1 2.8 9.4 2.5 9.6-.8.8-35.9-16.1-37.6-18.1-3.1-3.7-10.9-20.5-17-36.2-6.5-17-7.7-18.4-13.6-16.5-5.5 1.8-14.5 6.5-17 8.9-3 2.8-2.9 4 .7 14.6 1.6 4.9 2.8 9 2.7 9.2-.2.2-11.5-4.9-25-11.2-13.8-6.4-25.9-11.5-27.6-11.5-4.1 0-8.4 5.2-14.2 17.5-5.9 12.1-6.2 15.4-1.6 18.8 4.6 3.5 18.4 10.3 39.2 19.2 9.9 4.3 18.4 8.1 18.8 8.5.5.4-4.7 3.1-11.5 6-6.8 2.8-12.9 5.9-13.6 6.8-.8 1.1-1.1 3-.8 5.2.7 4.5 5.3 16 7.3 18.2 3 3.3 2.4 3.5 53.5-14.4l5.7-1.9 9.1 3.6c5 2 12.7 5.3 17.3 7.4l8.2 3.8-8.7 2.7c-4.8 1.4-9.4 3.3-10.2 4.2-2 2-2 7.5-.1 13.9.9 2.7 2 6.6 2.5 8.6 2 7.5 6.1 7.1 38.2-3.8l19.6-6.6 13.7 6.5c7.4 3.7 13.2 6.9 12.8 7.1-3.4 2.1-74.7 29-98.8 37.3l-8.1 2.8-12.4-7.1c-21.1-11.9-32.7-17.4-35.4-16.7-1.6.4-4.2 3.2-7.5 8.3-4.4 6.7-5.1 8.4-5.1 12.8 0 6.1.7 6.8 12.5 12.3 7.5 3.5 8.7 4.3 7 5.1-1.1.4-8.7 3.3-16.8 6.4-8.2 3.1-21.4 8.4-29.5 11.9-17.6 7.4-18.2 8.1-15.8 17.9 2.2 8.4 9.1 22.3 12.2 24.4 2.5 1.6 3.4 1.3 35.1-10.6 17.8-6.8 32.7-12 33-11.8.3.3-2 5-5.1 10.5-3.1 5.5-5.6 10.9-5.6 12.1 0 4.6 14.2 15.1 20.5 15.1 5.5 0 11.6-8.5 25.1-35.2 4.8-9.5 9.4-17.4 10.7-18.2 7.5-4.9 97.8-38.8 99.3-37.3 1 1-7.9 22.2-10.5 25-3.5 3.9-23.9 13.9-45 22.2-13.7 5.4-17.5 7.4-18.4 9.2-.9 2.1-.4 3.9 4.1 12.8 4 8.1 5.7 10.6 7.6 11.1 3 .7 10.7-1.4 21.6-6.1 4.5-1.8 7.9-2.8 7.7-2.2-3.9 9.3-16.4 34.5-17.6 35.5-4.5 3.5-19.4 10.1-34.8 15.2-9.5 3.1-17.9 6.2-18.7 7-2.1 1.7-2 5.5.6 15.7 2.7 11.1 4.3 12.8 11.2 11.9 2.8-.4 8.9-2 13.6-3.6 4.7-1.5 8.6-2.7 8.8-2.6.3.4-7.4 17.6-15.7 35.1-8 16.6-8.7 19.8-5 22.6 4.8 3.6 23.7 12.9 26.4 12.9 4.1 0 8-3.3 13-11.4 4.5-7.3 12.6-24.5 18-38.4 1.9-4.7 3.1-6.8 3.6-6 .5.7 2.3 5.3 4 10.3 4.2 11.9 5.1 12.9 11 12.2 7-.9 17.6-6 19.1-9.2 1.6-3.5-.9-13.3-8.2-33-8.4-22.5-8.3-18.7-.5-37.1 3.7-8.7 7.1-16.3 7.5-16.7.4-.5 2 2.7 3.4 7.1 1.5 4.4 3.4 8.6 4.2 9.3 2.1 1.7 12.1.6 18-2 6.4-2.9 9.4-5.8 9.4-9.2 0-3.9-4.2-17-10.3-31.9-2.8-6.9-5-13-5-13.5 0-.6 2.8-7.5 6.3-15.5 3.4-8 6.9-16.1 7.7-18 1.1-2.6 1.7-3 2.3-2 .5.8 7.2 19.5 15 41.5l14.2 40-13.1 26c-7.2 14.4-13.1 27-13.1 28.1 0 2.8.8 3.6 8.5 8.7 5.8 3.9 7.8 4.7 11.6 4.7 6.3 0 9.4-3.3 16.1-16.9l5.1-10.4 1.8 4.9c1 2.7 5.9 16.1 11 29.9 19.6 53.6 21.9 58.5 27.2 57 6.6-2 28.9-11 29.9-12.2.6-.7 1-2.6 1-4.1-.1-1.5-6.7-20.5-14.6-42.2-7.9-21.7-14.3-39.7-14.1-39.9.2-.2 3.3 1.3 6.9 3.3 7.6 4.3 10.4 4.5 14 1.1 3.7-3.5 10.7-18.4 10-21.2-.7-2.5-21.2-14.9-37-22.5-9.8-4.7-9.7-4.6-18.5-26.5-5-12.4-23.9-62.9-23.9-63.7 0-.2 5.3 1.8 11.8 4.6 6.4 2.7 14 5.9 16.9 6.9 3.9 1.5 6 3.2 8.6 6.7 4.9 6.6 12.5 22.4 18.8 38.6 6.1 15.9 6.5 16.3 15.5 13.9 11.1-2.8 16.4-6.9 16.4-12.3 0-1.5-1.3-6.6-3-11.5-1.6-4.9-3-9-3-9.1 0-.1 7.8 3.2 17.4 7.4l17.5 7.5 5.4 11.6c3 6.4 8.1 17.9 11.3 25.6 7.1 17.4 7.5 17.9 13.4 17.1 5.1-.7 17.4-7.6 19.1-10.7 1.4-2.7.5-8.8-2.5-16.2l-2.4-5.8 2.1.7c1.2.4 10.5 4.6 20.7 9.5 17.5 8.4 18.7 8.8 22.2 7.9 6-1.7 10.7-8.6 14.7-21.4 2.7-8.8 2.7-10.8-.5-13.9-3-3-17.1-10.1-36.3-18.1-7.3-3.1-14-6-14.8-6.5-1.1-.6 2.1-2.2 10.8-5.7 15.5-6 16.3-6.6 15.6-12.2-.5-4.5-5.2-15.1-8.8-19.6-2.7-3.4-5.1-3.3-14.2.9-13.2 5.9-40.2 16.5-42.5 16.5-2.5 0-38.2-15-38.2-16 0-.4 1.2-1.1 2.8-1.5 1.5-.3 6.8-2.6 11.9-5 7.4-3.5 9.3-4.8 9.9-6.9 1.1-4.6-3.1-16.9-7.4-21.9-3.1-3.5-11.4-1.4-39.9 10.3l-15.2 6.2-13.8-5.5c-16.6-6.7-23.6-9.8-23.1-10.2.2-.2 13.8-5.1 30.2-11 16.5-5.9 37.6-13.6 47-17.2 9.4-3.5 19.6-7.4 22.8-8.6l5.6-2.1 28.7 14.2c15.7 7.8 29.7 14.2 30.9 14.2 2.8 0 4.2-1.6 9.5-10.7 4.8-8.3 5.3-12.9 1.9-16-1.3-1.1-6.8-4.6-12.3-7.8-16.5-9.6-16.1-9.3-14.5-9.9.8-.3 8.3-3 16.5-6 27.6-9.9 41.9-16 45.8-19.4 2.4-2.1 2.1-5.8-.9-14.4-4.1-11.5-8.2-18.8-10.9-19.8-3.7-1.4-19.6 3.6-55.8 17.6-1.6.6-1.5 0 .8-4.6 3.3-6.5 2.8-10.3-1.8-14.8-3.4-3.2-10.9-7.1-14-7.2-6.4-.1-14.2 10.3-22.4 29.7l-4.8 11.4-17.5 6.8c-18.4 7.3-97.7 37.1-98.5 37.1-.8 0 2.4-7.3 4-9 .8-.9 1.5-2.7 1.5-4.1.1-11.5 16.1-23.1 44.3-32 7.3-2.4 13.8-4.7 14.6-5.3 2.3-1.8.9-13.7-2.6-20.4-4.4-8.6-6.3-9.2-18.1-5.3-5.2 1.7-9.6 3-9.8 2.8-.8-.8 12-29.2 14-30.9 3.7-3.2 27.5-14.4 43.1-20.3 8.3-3.1 15.9-6.5 17-7.6 1.7-1.7 1.8-2.3.7-7.6-2.5-12-4.5-16.6-7.7-17.6-3.9-1.3-12.5.5-23.4 4.9-4.7 1.9-8.6 3.4-8.8 3.4-.4 0 1.3-3.8 12.9-28.5 5.9-12.6 10.8-24.1 10.8-25.5 0-6-6.9-12.4-19.5-18.1-3.6-1.6-7.5-2.9-8.8-2.9-5.4 0-11.8 9.8-23.9 36.7-4.4 9.8-8.1 18-8.4 18.2-.2.2-2.3-3.9-4.8-9.2-5.7-12.4-6.1-12.5-19.4-5.8-7.9 3.9-10.3 5.7-10.8 7.6-.7 3 1.1 8.7 9.3 28.2 3.4 8.4 6.3 16.4 6.3 17.8 0 4.2-5.6 18.1-13.1 32.4-3.9 7.5-7.4 13.9-7.8 14.3-.3.4-2.2-4.2-4-10.3-4.5-14.4-5.1-14.9-16.4-12.5-17.1 3.7-18.1 5-14.3 18.7 1.4 5.2 5.3 16.8 8.7 25.9 3.3 9.1 6.3 17.5 6.6 18.8.5 2.1-8 23.6-9.7 24.7-.4.3-3.1-6.2-6-14.3-2.9-8.1-11.9-32.8-20.2-54.9l-14.9-40.1 11.1-22.4 11.2-22.4-1.5-3.5c-1.9-4.7-6.8-7.6-16-9.6-9.7-2.1-11.1-1.3-15.7 9.2-1.8 4.2-3.6 7.2-4 6.8-.4-.4-2.2-5.1-4-10.3-5.3-15.2-17-45.3-18.6-47.8-1.2-1.8-2.3-2.2-6.2-2.1-2.6 0-6.8.7-9.3 1.4z" fill="#fff"/></svg>