<svg width="32" height="32" fill="none" xmlns="http://www.w3.org/2000/svg"><path d="M16 3C10.486 3 6 7.486 6 13s4.486 10 10 10 10-4.486 10-10S21.514 3 16 3zm0 2c4.411 0 8 3.589 8 8s-3.589 8-8 8-8-3.589-8-8 3.589-8 8-8zm-1 2v1.19a3.076 3.076 0 00-1.674 1.464 2.918 2.918 0 00-.264 1.945c.123.574.408 1.1.822 1.516.273.273.598.494.956.647.358.153.75.238 1.16.238.142 0 .276.027.396.076a.96.96 0 01.528.528c.049.12.076.254.076.396a.976.976 0 01-.604.924c-.12.049-.254.076-.396.076-.143 0-.276-.027-.396-.076a.96.96 0 01-.532-.539A.995.995 0 0115 15h-2c0 .778.308 1.524.857 2.076.321.328.712.579 1.143.735V19h2v-1.19a3.024 3.024 0 001.96-2.335 2.944 2.944 0 00-.478-2.145 3.027 3.027 0 00-1.882-1.268A2.936 2.936 0 0016 12c-.143 0-.276-.027-.396-.076a.96.96 0 01-.528-.528A1.045 1.045 0 0115 11c0-.143.027-.276.076-.396a.96.96 0 01.528-.528c.12-.049.254-.076.396-.076.57 0 1 .43 1 1h2c0-.314-.05-.626-.148-.924A3.045 3.045 0 0017 8.19V7h-2zM2 21v8h2v-6h5.38a12.093 12.093 0 01-2.3-2H2zm22.92 0a12.093 12.093 0 01-2.3 2H28v6h2v-8h-5.08zM6 25v2h20v-2H6z" fill="#BCBFBF"/></svg>