<svg width="32" height="32" fill="none" xmlns="http://www.w3.org/2000/svg"><g clip-path="url(#clip0)"><path d="M.553 14.928l7.826 3.9c.302.15.66.139.949-.03l6.965-4.05-4.216 3.736c-.214.19-.337.463-.337.75v9.1c0 .96 1.225 1.363 1.8.6l3.383-4.497 8.365 4.764a1 1 0 001.475-.672l5.217-26c.156-.781-.621-1.418-1.344-1.128l-30 11.7c-.805.315-.857 1.442-.083 1.827zM29.66 3.929l-4.585 22.85-7.927-4.515a1.002 1.002 0 00-1.295.268l-2.113 2.81v-5.66l11.401-10.1c.903-.8-.134-2.22-1.165-1.614l-15.187 8.83-5.322-2.653L29.66 3.93z" fill="#BCBFBF"/></g><defs><clipPath id="clip0"><path fill="#fff" d="M0 0h32v32H0z"/></clipPath></defs></svg>