<?xml version="1.0" standalone="no"?>
<!DOCTYPE svg PUBLIC "-//W3C//DTD SVG 20010904//EN"
 "http://www.w3.org/TR/2001/REC-SVG-20010904/DTD/svg10.dtd">
<svg version="1.0" xmlns="http://www.w3.org/2000/svg"
 width="457.000000pt" height="457.000000pt" viewBox="0 0 457.000000 457.000000"
 preserveAspectRatio="xMidYMid meet">
<metadata>
Created by potrace 1.11, written by Peter Selinger 2001-2013
</metadata>
<g transform="translate(0.000000,457.000000) scale(0.100000,-0.100000)"
fill="#000000" stroke="none">
<path d="M218 4563 c-16 -2 -28 -9 -28 -14 0 -6 -4 -7 -10 -4 -5 3 -10 2 -10
-4 0 -6 -11 -13 -25 -17 -14 -3 -30 -15 -36 -25 -5 -11 -13 -18 -17 -15 -8 5
-34 -21 -30 -29 2 -3 -7 -17 -20 -30 -16 -16 -19 -25 -10 -28 10 -4 10 -6 1
-6 -7 -1 -13 -10 -13 -22 0 -12 -4 -17 -11 -13 -8 4 -8 0 0 -15 7 -11 8 -21 3
-21 -4 0 -8 -919 -7 -2042 0 -1635 3 -2047 13 -2065 7 -13 9 -23 5 -23 -4 0 2
-7 13 -16 10 -8 13 -12 6 -9 -8 4 -3 -9 10 -29 13 -20 26 -36 30 -36 5 0 17
-8 27 -18 39 -34 50 -42 66 -42 8 0 15 -5 15 -11 0 -5 5 -7 10 -4 6 4 17 1 25
-5 8 -6 19 -9 25 -5 5 3 10 2 10 -2 0 -5 593 -9 1344 -9 l1345 1 44 48 c25 26
49 47 56 47 6 0 10 3 9 8 -4 9 195 208 205 204 4 -1 7 5 7 13 0 8 5 15 10 15
6 0 10 5 10 10 0 6 14 24 30 40 17 16 30 27 30 25 0 -3 9 3 19 12 11 9 18 20
15 25 -3 5 -2 7 3 6 5 -2 29 17 53 42 25 25 58 56 74 68 16 12 26 22 22 22 -4
0 19 26 50 58 32 31 61 56 66 55 4 -2 8 1 8 7 0 5 28 37 63 71 34 34 61 66 60
70 -2 5 1 8 5 6 10 -3 168 155 164 165 -1 5 2 7 6 5 5 -1 34 24 65 56 31 31
61 57 67 57 5 0 9 3 8 8 -4 11 99 111 108 104 4 -4 4 -2 1 4 -7 12 28 46 38
36 4 -4 5 -2 3 3 -3 12 123 141 135 137 4 -1 7 3 7 9 0 12 88 99 101 99 5 0 8
4 6 8 -1 4 13 22 31 40 l32 31 0 1391 c0 960 -4 1390 -11 1390 -5 0 -7 5 -4
10 3 6 1 10 -5 10 -6 0 -8 5 -5 11 4 6 -3 13 -15 16 -16 4 -18 8 -9 14 10 6 9
10 -6 15 -11 5 -29 18 -41 31 -11 12 -24 20 -27 16 -4 -3 -7 -1 -7 5 0 7 -9
12 -20 12 -11 0 -20 4 -20 8 0 4 -8 9 -17 11 -26 5 -4123 9 -4155 4z"/>
</g>
</svg>
