<svg width="27" height="35" viewBox="0 0 27 35" fill="none" xmlns="http://www.w3.org/2000/svg">
<path d="M5.0625 29.75H21.9375C21.825 28.3208 21.4031 27.0083 20.6719 25.8125C19.9406 24.6167 18.9844 23.6687 17.8031 22.9687L19.4063 19.9938C19.4625 19.8771 19.4766 19.7458 19.4484 19.6C19.4203 19.4542 19.3359 19.3521 19.1953 19.2937C19.0828 19.2354 18.9636 19.2208 18.8376 19.25C18.7104 19.2792 18.6187 19.3521 18.5625 19.4688L16.9172 22.5312C16.3547 22.2979 15.7922 22.1153 15.2297 21.9835C14.6672 21.8528 14.0906 21.7875 13.5 21.7875C12.9094 21.7875 12.3328 21.8528 11.7703 21.9835C11.2078 22.1153 10.6453 22.2979 10.0828 22.5312L8.4375 19.4688C8.38125 19.3229 8.29013 19.25 8.16413 19.25C8.037 19.25 7.90313 19.2792 7.7625 19.3375L7.59375 19.9938L9.19687 22.9687C8.01562 23.6687 7.05937 24.6167 6.32812 25.8125C5.59687 27.0083 5.175 28.3208 5.0625 29.75ZM9.70313 27.125C9.47813 27.125 9.28125 27.0375 9.1125 26.8625C8.94375 26.6875 8.85938 26.4833 8.85938 26.25C8.85938 26.0167 8.94375 25.8125 9.1125 25.6375C9.28125 25.4625 9.47813 25.375 9.70313 25.375C9.92813 25.375 10.125 25.4625 10.2938 25.6375C10.4625 25.8125 10.5469 26.0167 10.5469 26.25C10.5469 26.4833 10.4625 26.6875 10.2938 26.8625C10.125 27.0375 9.92813 27.125 9.70313 27.125ZM17.2969 27.125C17.0719 27.125 16.875 27.0375 16.7062 26.8625C16.5375 26.6875 16.4531 26.4833 16.4531 26.25C16.4531 26.0167 16.5375 25.8125 16.7062 25.6375C16.875 25.4625 17.0719 25.375 17.2969 25.375C17.5219 25.375 17.7188 25.4625 17.8875 25.6375C18.0563 25.8125 18.1406 26.0167 18.1406 26.25C18.1406 26.4833 18.0563 26.6875 17.8875 26.8625C17.7188 27.0375 17.5219 27.125 17.2969 27.125ZM3.375 35C2.44687 35 1.65262 34.6576 0.99225 33.9727C0.33075 33.2867 0 32.4625 0 31.5V3.5C0 2.5375 0.33075 1.71325 0.99225 1.02725C1.65262 0.342416 2.44687 0 3.375 0H15.4828C15.9328 0 16.362 0.0875001 16.7704 0.2625C17.1776 0.4375 17.5359 0.685417 17.8453 1.00625L26.0297 9.49375C26.3391 9.81458 26.5781 10.1862 26.7469 10.6085C26.9156 11.032 27 11.4771 27 11.9437V31.5C27 32.4625 26.6698 33.2867 26.0094 33.9727C25.3479 34.6576 24.5531 35 23.625 35H3.375ZM15.1875 10.5V3.5H3.375V31.5H23.625V12.25H16.875C16.3969 12.25 15.9964 12.082 15.6735 11.746C15.3495 11.4112 15.1875 10.9958 15.1875 10.5ZM3.375 3.5V12.25V3.5V31.5V3.5Z" fill="white"/>
</svg>
