<?xml version="1.0" encoding="utf-8"?>
<!-- Generator: Adobe Illustrator 25.2.0, SVG Export Plug-In . SVG Version: 6.00 Build 0)  -->
<svg version="1.1" id="katman_1" xmlns="http://www.w3.org/2000/svg" xmlns:xlink="http://www.w3.org/1999/xlink" x="0px" y="0px"
	 viewBox="0 0 409.8 120" style="enable-background:new 0 0 409.8 120;" xml:space="preserve">
<style type="text/css">
	.st0{fill:#FFFFFF;}
	.st1{fill-rule:evenodd;clip-rule:evenodd;fill:#C8102E;}
</style>
<g id="appstore" transform="translate(0)">
	<path id="Path_1" d="M409.8,108c0.1,6.6-5.2,11.9-11.8,12c0,0,0,0,0,0H11.8C5.2,119.9,0,114.6,0,108V12C0,5.4,5.2,0.1,11.8,0H398
		c6.6,0.1,11.8,5.4,11.8,12L409.8,108L409.8,108z"/>
	<g id="Group_10" transform="translate(126.379 50.925)">
		<path id="Path_6" class="st0" d="M24.5,29.3H10L6.4,39H0L14.2,2.7h6L34.8,39h-6.7L24.5,29.3z M11.8,24.5h10.9l-3.9-10.3
			c-0.6-1.5-0.9-3-1.5-4.8c-0.6,1.5-0.9,3-1.5,4.8L11.8,24.5z"/>
		<path id="Path_7" class="st0" d="M37.5,18.8c0-2.2-0.1-4.4-0.3-6.7H43c0.2,1.1,0.4,2.2,0.3,3.3c2-2.5,5-3.9,8.2-3.9
			c1.8,0.1,3.6,0.6,5.1,1.5c1.6,1,2.8,2.5,3.6,4.2c1.1,2.4,1.6,5,1.5,7.6c0,2.8-0.5,5.6-1.5,8.2c-1.1,2-2.6,3.8-4.5,5.1
			c-2,1.2-4.3,1.9-6.6,1.8c-1.9,0-3.7-0.3-5.4-0.9v11.2l-6,0.6L37.5,18.8L37.5,18.8z M53.8,32.4c1.2-1.8,1.8-4.2,1.8-7.6
			c0.1-2.3-0.4-4.6-1.5-6.7c-2-2-5.1-2.4-7.6-0.9c-1.1,0.6-2.2,1.4-3,2.4v14.5c0.6,0.4,1.4,0.6,2.1,0.6c0.9,0,1.5,0.3,2.4,0.3
			C50.8,35.1,52.6,34.2,53.8,32.4z"/>
		<path id="Path_8" class="st0" d="M65.9,18.8c0-2.2-0.1-4.4-0.3-6.7h5.7c0.2,1.1,0.4,2.2,0.3,3.3c2-2.5,5-3.9,8.2-3.9
			c1.8,0.1,3.6,0.6,5.1,1.5c1.6,1,2.8,2.5,3.6,4.2c1.1,2.4,1.6,5,1.5,7.6c0,2.8-0.5,5.6-1.5,8.2c-1.1,2-2.6,3.8-4.5,5.1
			c-2,1.2-4.3,1.9-6.6,1.8c-1.9,0-3.7-0.3-5.4-0.9v11.2l-6,0.6L65.9,18.8z M82.3,32.4c1.2-1.8,1.8-4.2,1.8-7.6
			c0.1-2.3-0.4-4.6-1.5-6.7c-1-1.3-2.6-2.1-4.2-2.1c-1.2,0-2.3,0.3-3.3,0.9c-1.1,0.6-2.2,1.4-3,2.4v14.5c0.6,0.4,1.4,0.6,2.1,0.6
			c0.9,0,1.5,0.3,2.4,0.3C79.3,35.1,81.1,34.2,82.3,32.4z"/>
		<path id="Path_9" class="st0" d="M102.2,37.2c-2.7-1.4-4.8-3.6-6.1-6.4c-1.5-3-2.2-6.3-2.1-9.7c-0.1-3.6,0.8-7.1,2.4-10.3
			c1.6-2.7,3.9-4.9,6.7-6.4c3-1.5,6.3-2.2,9.7-2.1c2,0.1,4.1,0.3,6.1,0.6c2.1,0.3,3.6,1.2,5.4,1.8l-1.5,4.8
			c-2.9-1.5-6.1-2.3-9.4-2.4c-2.3,0-4.6,0.5-6.7,1.5c-1.9,1.2-3.4,2.9-4.5,4.8c-1,2.4-1.5,5-1.5,7.6c-0.1,2.4,0.3,4.8,1.2,7
			c0.8,2,2.2,3.7,3.9,4.8c2,1.3,4.3,1.9,6.7,1.8c1.2,0.1,2.4-0.1,3.6-0.3c1.2-0.3,2.4-0.6,3.3-0.9v-7.3H111v-4.8h14.5v15.1
			c-2.1,1-4.3,1.7-6.7,2.1c-2.2,0.6-4.4,0.9-6.7,0.9C108.7,39.7,105.3,38.9,102.2,37.2z"/>
		<path id="Path_10" class="st0" d="M147.3,39c-0.3-1.2-0.4-2.4-0.3-3.6c-1,1.2-2.2,2.3-3.6,3c-1.6,0.9-3.4,1.3-5.1,1.2
			c-1.5,0-2.9-0.3-4.2-0.9c-1.3-0.6-2.3-1.5-3-2.7c-0.8-1.4-1.2-3-1.2-4.5c-0.1-2.4,0.9-4.8,2.7-6.4c1.8-1.5,5.1-2.4,9.4-2.4
			c1.6-0.1,3.2,0,4.8,0.3v-0.6c0.1-1.8-0.4-3.7-1.5-5.1c-1.2-1-2.7-1.6-4.2-1.5c-1.4,0.1-2.8,0.3-4.2,0.6c-1.4,0.3-2.7,0.8-3.9,1.5
			l-0.9-4.5c1.4-0.6,2.8-1.1,4.2-1.5c1.9-0.4,3.8-0.6,5.7-0.6c2.1-0.1,4.2,0.3,6.1,1.2c1.7,0.7,3.1,2,3.9,3.6c1.1,2.2,1.6,4.6,1.5,7
			v10.9c0,1.7,0.1,3.4,0.3,5.1L147.3,39z M143.7,34.2c1.2-0.6,2.2-1.4,3-2.4v-5.1c-1.4-0.2-2.8-0.3-4.2-0.3c-2.4,0-4.2,0.3-5.4,1.2
			c-1,0.8-1.5,2-1.5,3.3c-0.1,1.1,0.3,2.3,1.2,3c0.9,0.7,1.9,1,3,0.9C141.1,35,142.5,34.8,143.7,34.2z"/>
		<path id="Path_11" class="st0" d="M158.2,32.7V0.6l6.1-0.6v31.5c0,0.8,0.2,1.7,0.6,2.4c0.3,0.6,0.9,0.6,1.8,0.6
			c0.5,0,1-0.1,1.5-0.3l0.6,4.5c-0.7,0.2-1.4,0.4-2.1,0.6c-0.9,0-1.5,0.3-2.4,0.3C160.3,39.6,158.2,37.2,158.2,32.7z"/>
		<path id="Path_12" class="st0" d="M173.6,32.7V0.6l6.1-0.6v31.5c0,0.8,0.2,1.7,0.6,2.4c0.3,0.6,0.9,0.6,1.8,0.6
			c0.5,0,1-0.1,1.5-0.3l0.6,4.5c-0.7,0.2-1.4,0.4-2.1,0.6c-0.9,0-1.5,0.3-2.4,0.3C175.8,39.6,173.6,37.2,173.6,32.7z"/>
		<path id="Path_13" class="st0" d="M210.2,26.3h-17.5c0.3,5.7,3,8.5,8.2,8.5c1.3-0.1,2.6-0.3,3.9-0.6c1.3-0.3,2.7-0.7,3.9-1.2
			l1.2,4.2c-3.2,1.5-6.7,2.2-10.3,2.1c-2.5,0-5-0.5-7.3-1.5c-1.9-1.1-3.4-2.7-4.5-4.5c-1-2.3-1.5-4.8-1.5-7.3c0-2.6,0.5-5.2,1.5-7.6
			c0.8-2.1,2.5-3.9,4.5-4.8c3.9-2.4,8.8-2.4,12.7,0c1.8,1.2,3.1,2.9,3.9,4.8c0.9,2.1,1.3,4.4,1.2,6.7V26.3z M204.2,22.4
			c0.1-1.7-0.5-3.4-1.5-4.8c-0.9-1.2-2.1-1.5-3.9-1.5c-1.5,0-2.9,0.5-3.9,1.5c-1.1,1.4-1.8,3.1-2.1,4.8H204.2z"/>
		<path id="Path_14" class="st0" d="M215.4,18.8c0-2.2-0.1-4.4-0.3-6.7h5.7c0,0.6,0.3,1.5,0.3,2.7c0,0.9,0.3,1.8,0.3,2.4
			c0.6-1.1,1.3-2.1,2.1-3c0.7-0.9,1.5-1.6,2.4-2.1c0.9-0.6,2-0.9,3-0.9c0.8-0.1,1.6,0,2.4,0.3l-0.9,5.4c-0.7-0.3-1.4-0.4-2.1-0.3
			c-1.4-0.1-2.8,0.4-3.9,1.2c-1.3,1-2.5,2.2-3.3,3.6v17.2h-6v-20H215.4z"/>
		<path id="Path_15" class="st0" d="M235.4,50.2c-0.7-0.2-1.4-0.4-2.1-0.6l1.2-4.5c0.5,0.1,1,0.2,1.5,0.3c0.6,0,1.2,0.3,1.8,0.3
			c2.7,0,4.8-1.8,6.1-5.1l0.3-0.9l-10-27.2h6.7l5.1,15.1c0.6,2,1.2,4,1.5,6c0.6-1.8,0.9-3.9,1.5-5.7l5.1-15.4h6.4l-10,27.2
			c-0.7,2.3-1.7,4.4-3,6.4c-1.1,1.4-2.4,2.7-3.9,3.6c-1.7,0.9-3.6,1.3-5.4,1.2C237.2,50.4,236.3,50.2,235.4,50.2z"/>
	</g>
	<g id="Group_11" transform="translate(126.379 18.254)">
		<path id="Path_16" class="st0" d="M0,0h11.2l-0.3,2.7H3.3v5.1h7.3v2.4H3.3V16h7.9l-0.3,2.7H0V0z"/>
		<path id="Path_17" class="st0" d="M18.8,9.4L13,0h3.6l3.9,7l4.2-7h3.6l-5.7,9.1l6.4,9.7h-3.6l-4.5-7.6l-4.5,7.6h-3.9L18.8,9.4z"/>
		<path id="Path_18" class="st0" d="M31.2,0h5.1c1.9-0.1,3.8,0.4,5.4,1.5c1.2,1,1.9,2.6,1.8,4.2c0,1.2-0.3,2.3-0.9,3.3
			c-0.7,0.9-1.5,1.6-2.4,2.1c-0.9,0.6-2.1,0.6-3.6,0.6c-0.8,0-1.6-0.1-2.4-0.3v7.3h-3.3V0H31.2z M39.3,8.5c0.7-0.7,1-1.7,0.9-2.7
			c0-1.2-0.3-2.1-1.2-2.4c-0.9-0.7-1.9-1-3-0.9h-1.8v6.7c0.6,0,1.2,0.1,1.8,0.3C37.8,9.7,38.7,9.4,39.3,8.5L39.3,8.5z"/>
		<path id="Path_19" class="st0" d="M46.9,0h3.3v16h7.9l-0.3,3H46.9V0z"/>
		<path id="Path_20" class="st0" d="M62.9,18.1c-1.4-0.7-2.4-1.9-3-3.3c-0.8-1.6-1.2-3.4-1.2-5.1c-0.1-1.8,0.3-3.6,1.2-5.1
			c0.7-1.5,1.9-2.6,3.3-3.3c1.6-0.9,3.4-1.3,5.1-1.2c1.7-0.1,3.4,0.3,4.8,1.2c1.4,0.7,2.4,1.9,3,3.3c0.7,1.5,1.1,3.2,1.2,4.8
			c0.1,1.9-0.3,3.8-1.2,5.4c-0.7,1.5-1.9,2.6-3.3,3.3c-1.6,0.9-3.3,1.3-5.1,1.2C66.1,19.4,64.4,19,62.9,18.1z M71.7,15.7
			c0.9-0.7,1.6-1.5,2.1-2.4c0.3-1.2,0.5-2.4,0.6-3.6c0-1.2-0.2-2.5-0.6-3.6c-0.2-1-0.9-1.9-1.8-2.4c-2.1-1.2-4.6-1.2-6.7,0
			c-0.9,0.7-1.7,1.6-2.1,2.7c-0.5,1.1-0.7,2.4-0.6,3.6c0,1.2,0.2,2.5,0.6,3.6c0.4,1.1,1.1,1.9,2.1,2.4c1,0.6,2.2,0.9,3.3,0.9
			C69.7,16.6,70.7,16.2,71.7,15.7z"/>
		<path id="Path_21" class="st0" d="M81.4,0h6.1c2.1,0,3.9,0.3,4.8,1.2c1.2,0.8,1.9,2.2,1.8,3.6c-0.1,0.9-0.3,1.9-0.6,2.7
			C93.2,8.3,92.7,9,92,9.4c-0.5,0.5-1.1,0.9-1.8,1.2l5.7,8.5H92l-4.8-7.6h-2.4v7.6h-3.3V0z M86.5,9.1c0.7,0,1.5-0.2,2.1-0.6
			c0.6-0.2,1.2-0.7,1.5-1.2c0.3-0.6,0.5-1.2,0.6-1.8c0-0.8-0.3-1.6-0.9-2.1c-0.8-0.4-1.8-0.6-2.7-0.6h-2.4v6.4L86.5,9.1L86.5,9.1z"
			/>
		<path id="Path_22" class="st0" d="M98.3,0h11.2l-0.3,2.7h-7.6v5.1h7.3v2.4h-7.3V16h7.9l-0.3,3H98.3V0z"/>
		<path id="Path_23" class="st0" d="M121.6,0h3.3v19.1h-3.3V0z"/>
		<path id="Path_24" class="st0" d="M133.4,3h-5.7l0.3-2.7h14.8L142.5,3H137v16.3h-3.6V3z"/>
		<path id="Path_25" class="st0" d="M157,18.1c-1.4-0.7-2.4-1.9-3-3.3c-0.8-1.6-1.2-3.4-1.2-5.1c-0.1-1.8,0.3-3.6,1.2-5.1
			c0.7-1.5,1.9-2.6,3.3-3.3c1.6-0.9,3.4-1.3,5.1-1.2c1.7-0.1,3.4,0.3,4.8,1.2c1.4,0.7,2.4,1.9,3,3.3c0.7,1.5,1.1,3.2,1.2,4.8
			c0.1,1.9-0.3,3.8-1.2,5.4c-0.7,1.5-1.9,2.6-3.3,3.3c-1.6,0.9-3.3,1.3-5.1,1.2C160.1,19.5,158.5,19,157,18.1z M165.5,15.7
			c0.9-0.7,1.6-1.5,2.1-2.4c0.3-1.2,0.6-2.4,0.6-3.6c0-1.2-0.2-2.5-0.6-3.6c-0.2-1-0.9-1.9-1.8-2.4c-2.1-1.2-4.6-1.2-6.7,0
			c-0.9,0.7-1.7,1.6-2.1,2.7c-0.5,1.1-0.7,2.4-0.6,3.6c0,1.2,0.2,2.5,0.6,3.6c0.4,1.1,1.1,1.9,2.1,2.4c1,0.6,2.2,0.9,3.3,0.9
			C163.5,16.7,164.5,16.3,165.5,15.7z"/>
		<path id="Path_26" class="st0" d="M175.2,0h3.6l9.4,14.5V0h3v19.1h-3.6l-9.4-14.8v14.8h-3V0z"/>
	</g>
	<g id="Group_12" transform="translate(22.922 18.254)">
		<g id="形状_1_拷贝_25_32_">
			<g id="Group_5">
				<path id="Path_27" class="st1" d="M57.5,0H22.4C6.1,0,0,6,0,22.4v34.8c0,16.3,6.1,22.4,22.4,22.4h34.8
					c16.3,0,22.4-6.1,22.4-22.4V22.4C79.9,6,73.8,0,57.5,0z"/>
			</g>
		</g>
		<path id="Path_28" class="st0" d="M15.7,39.9h2.1v10.6h-2.1v-4.2h-4.5v4.2H9.1V39.9h2.1v4.2H16v-4.2H15.7z M27.8,46
			c0,1.8-0.9,2.7-2.4,2.7S23,47.8,23,46v-6h-2.1v6c0,3,1.5,4.5,4.5,4.5c2.7,0,4.5-1.8,4.5-4.8v-5.7h-2.1V46z M52.3,47.2l-2.4-7.3
			h-1.8l-2.4,7.3l-2.1-7.3h-2.1l3.6,10.6h1.8l2.4-7l2.4,7h1.8l3.6-10.6h-2.1L52.3,47.2z M60.5,46h3.9v-1.8h-3.9V42h5.4v-2.1h-7.6
			v10.3h7.9v-1.8h-5.7L60.5,46z M69,50.2h2.1V39.9H69L69,50.2z M34.2,48.1l-0.9,2.1h-2.1l4.5-10.3h1.8L42,50.2h-2.1L39,48.1
			L34.2,48.1z M34.8,46.3h3.3l-1.5-3.6L34.8,46.3z"/>
		<path id="Path_29" class="st0" d="M39.9,26.6c-7.3-0.1-13.2-6-13.3-13.3h1.8c-0.2,6.3,4.8,11.6,11.2,11.8
			C46,25.3,51.2,20.3,51.4,14c0-0.2,0-0.4,0-0.6h1.8C53.2,20.6,47.3,26.6,39.9,26.6z"/>
	</g>
</g>
</svg>
