<svg viewBox="0 0 901 300" width="150" height="50px" fill="none" xmlns="http://www.w3.org/2000/svg">
<rect x="3.5564" y="3" width="894" height="294" rx="41" fill="black"/>
<path d="M199.776 185.577L216.048 189.642C223.415 191.482 230.556 185.939 230.556 178.381V99.9869C230.556 93.3327 226.009 87.5309 219.523 85.9107L172.871 74.2569C165.504 72.4166 158.363 77.9598 158.363 85.5178V99.6499L128.969 92.3071C121.602 90.4669 114.46 96.01 114.46 103.568V117.7L85.0646 110.357C77.6978 108.517 70.556 114.06 70.556 121.618L70.556 200.012C70.556 206.666 75.1037 212.468 81.5895 214.088L128.241 225.742C135.608 227.582 142.75 222.039 142.75 214.481L142.762 136.192C142.762 129.579 138.576 125.754 137.058 124.579C136.768 124.355 136.688 123.937 136.896 123.635C137.1 123.338 137.468 123.198 137.813 123.302C143.96 125.158 149.842 131.46 150.429 139.384L152.458 199.253C152.525 201.219 153.796 202.924 155.626 203.566L172.145 207.692C179.512 209.533 186.654 203.989 186.654 196.431L186.666 118.16C186.666 111.546 182.488 107.712 180.97 106.537C180.681 106.313 180.601 105.895 180.808 105.593C181.013 105.296 181.381 105.156 181.726 105.26C187.873 107.116 193.755 113.418 194.342 121.342L196.371 181.207C196.441 183.253 197.821 185.013 199.776 185.577Z" fill="white"/>
<path d="M391.831 245H375.071L348.478 207.879H334.488V245H320.222V147.351H354.572C361.22 147.351 367.176 148.644 372.44 151.229C377.703 153.815 381.766 157.416 384.628 162.033C387.583 166.558 389.061 171.775 389.061 177.684C389.061 185.072 386.798 191.397 382.274 196.66C377.749 201.831 371.701 205.248 364.129 206.91L391.831 245ZM334.488 160.509V194.86H354.572C360.482 194.86 365.237 193.29 368.838 190.15C372.532 186.918 374.379 182.763 374.379 177.684C374.379 172.606 372.532 168.497 368.838 165.357C365.237 162.125 360.482 160.509 354.572 160.509H334.488ZM429.686 246.385C424.608 246.385 420.037 245.139 415.974 242.645C411.911 240.06 408.725 236.551 406.417 232.119C404.108 227.594 402.954 222.515 402.954 216.883V173.391H416.528V215.775C416.528 221.223 418.051 225.655 421.099 229.071C424.146 232.488 428.07 234.196 432.872 234.196C437.858 234.196 442.014 232.442 445.338 228.933C448.662 225.424 450.324 221.038 450.324 215.775V173.391H463.898V245H454.202L451.017 234.196C448.708 238.075 445.661 241.076 441.875 243.199C438.181 245.323 434.119 246.385 429.686 246.385ZM514.501 246.385C505.544 246.385 497.741 244.077 491.092 239.46C484.536 234.75 480.058 228.379 477.657 220.345L491.369 218.129C494.047 223.3 497.233 227.132 500.927 229.625C504.62 232.026 509.145 233.227 514.501 233.227C519.949 233.227 524.381 232.026 527.797 229.625C531.214 227.132 532.922 223.762 532.922 219.514C532.922 216.375 531.953 213.743 530.014 211.619C528.167 209.495 525.812 207.787 522.95 206.494C520.087 205.202 516.347 203.77 511.73 202.201C505.544 200.169 500.465 198.138 496.494 196.106C492.524 194.075 489.153 191.212 486.383 187.519C483.705 183.733 482.366 178.931 482.366 173.114C482.366 167.666 483.705 162.91 486.383 158.847C489.153 154.692 492.939 151.506 497.741 149.29C502.543 147.074 507.898 145.966 513.808 145.966C522.026 145.966 529.09 148.136 535 152.476C540.91 156.723 545.111 162.587 547.604 170.066L534.169 172.283C532.322 168.035 529.69 164.803 526.274 162.587C522.857 160.278 518.84 159.124 514.224 159.124C509.237 159.124 505.128 160.325 501.896 162.725C498.664 165.034 497.048 168.22 497.048 172.283C497.048 175.33 497.972 177.915 499.819 180.039C501.758 182.163 504.112 183.871 506.883 185.164C509.745 186.457 513.531 187.934 518.24 189.596C524.242 191.628 529.229 193.705 533.199 195.829C537.262 197.861 540.679 200.769 543.449 204.555C546.219 208.341 547.604 213.097 547.604 218.822C547.604 224.362 546.127 229.21 543.172 233.365C540.309 237.52 536.339 240.752 531.26 243.061C526.274 245.277 520.687 246.385 514.501 246.385ZM604.942 233.088L603.695 245H591.091C583.611 245 577.932 243.153 574.054 239.46C570.176 235.766 568.237 230.457 568.237 223.531V185.441H555.909V173.391H568.237L571.977 152.614H581.811V173.391H603.695V185.441H581.811V223.531C581.811 229.902 584.904 233.088 591.091 233.088H604.942ZM650.208 246.385C642.914 246.385 636.404 244.815 630.679 241.676C624.953 238.536 620.475 234.15 617.243 228.517C614.011 222.885 612.395 216.467 612.395 209.265C612.395 202.062 614.011 195.644 617.243 190.012C620.475 184.379 624.953 179.993 630.679 176.853C636.404 173.621 642.914 172.006 650.208 172.006C657.503 172.006 664.013 173.621 669.738 176.853C675.463 179.993 679.942 184.379 683.174 190.012C686.405 195.644 688.021 202.062 688.021 209.265C688.021 216.467 686.405 222.885 683.174 228.517C679.942 234.15 675.463 238.536 669.738 241.676C664.013 244.815 657.503 246.385 650.208 246.385ZM650.208 233.919C657.226 233.919 662.905 231.657 667.245 227.132C671.677 222.608 673.893 216.652 673.893 209.265C673.893 201.877 671.677 195.921 667.245 191.397C662.905 186.78 657.226 184.471 650.208 184.471C643.191 184.471 637.512 186.78 633.172 191.397C628.832 195.921 626.662 201.877 626.662 209.265C626.662 216.559 628.832 222.515 633.172 227.132C637.512 231.657 643.191 233.919 650.208 233.919ZM702.578 245V173.391H712.412L715.321 183.64C717.445 180.039 720.076 177.454 723.216 175.884C726.355 174.222 730.095 173.391 734.435 173.391H737.759L738.867 186.411H731.111C726.124 186.411 722.385 187.842 719.892 190.704C717.398 193.567 716.152 197.445 716.152 202.339V245H702.578ZM816.469 208.711C816.469 210.557 816.423 211.989 816.331 213.004H757.187C757.926 219.376 760.419 224.454 764.667 228.24C768.915 232.026 774.316 233.919 780.872 233.919C785.397 233.919 789.414 233.042 792.923 231.288C796.524 229.441 799.248 227.04 801.095 224.085L813.838 226.163C811.068 232.626 806.589 237.613 800.402 241.122C794.308 244.631 787.521 246.385 780.041 246.385C772.931 246.385 766.56 244.815 760.927 241.676C755.294 238.444 750.908 234.012 747.769 228.379C744.629 222.746 743.059 216.375 743.059 209.265C743.059 202.062 744.629 195.644 747.769 190.012C750.908 184.379 755.248 179.993 760.789 176.853C766.329 173.621 772.654 172.006 779.764 172.006C786.782 172.006 793.061 173.621 798.602 176.853C804.234 179.993 808.621 184.379 811.76 190.012C814.9 195.552 816.469 201.785 816.469 208.711ZM779.764 184.056C774.316 184.056 769.607 185.672 765.636 188.904C761.758 192.136 759.173 196.476 757.88 201.924H801.649C800.448 196.568 797.863 192.274 793.892 189.042C790.014 185.718 785.305 184.056 779.764 184.056Z" fill="white"/>
<path d="M320.009 118.509V100.858H321.173C322.682 100.858 323.888 100.491 324.794 99.7583C325.699 99.0256 326.453 97.56 327.057 95.3616C327.703 93.1202 328.199 89.8226 328.544 85.469L330.419 61.4164H359.127V100.858H365.787V118.509H359.127V107H326.669V118.509H320.009ZM352.467 100.858V67.5588H336.561L335.204 85.7923C334.686 93.0771 333.35 98.0988 331.195 100.858H352.467ZM386.957 107.647C383.552 107.647 380.513 106.914 377.84 105.448C375.168 103.983 373.077 101.935 371.568 99.3057C370.06 96.6763 369.305 93.6805 369.305 90.3183C369.305 86.9561 370.06 83.9603 371.568 81.3309C373.077 78.7015 375.168 76.654 377.84 75.1884C380.513 73.6798 383.552 72.9254 386.957 72.9254C390.362 72.9254 393.401 73.6798 396.074 75.1884C398.746 76.654 400.837 78.7015 402.345 81.3309C403.854 83.9603 404.608 86.9561 404.608 90.3183C404.608 93.6805 403.854 96.6763 402.345 99.3057C400.837 101.935 398.746 103.983 396.074 105.448C393.401 106.914 390.362 107.647 386.957 107.647ZM386.957 101.827C390.233 101.827 392.884 100.771 394.91 98.6592C396.979 96.547 398.013 93.7667 398.013 90.3183C398.013 86.8699 396.979 84.0896 394.91 81.9775C392.884 79.8222 390.233 78.7446 386.957 78.7446C383.681 78.7446 381.03 79.8222 379.004 81.9775C376.978 84.0896 375.965 86.8699 375.965 90.3183C375.965 93.7236 376.978 96.5039 379.004 98.6592C381.03 100.771 383.681 101.827 386.957 101.827ZM426.792 107.647C423.473 107.647 420.477 106.914 417.805 105.448C415.175 103.94 413.128 101.87 411.662 99.2411C410.197 96.6117 409.464 93.6374 409.464 90.3183C409.464 86.9561 410.197 83.9603 411.662 81.3309C413.128 78.7015 415.175 76.654 417.805 75.1884C420.434 73.6798 423.43 72.9254 426.792 72.9254C430.37 72.9254 433.56 73.7875 436.361 75.5117C439.206 77.2359 441.232 79.7145 442.439 82.9474L436.491 83.9172C435.715 82.3654 434.486 81.1154 432.805 80.1671C431.167 79.2188 429.292 78.7446 427.18 78.7446C423.904 78.7446 421.232 79.8222 419.162 81.9775C417.137 84.1328 416.124 86.913 416.124 90.3183C416.124 93.7236 417.137 96.5039 419.162 98.6592C421.232 100.771 423.904 101.827 427.18 101.827C429.378 101.827 431.318 101.332 432.999 100.34C434.723 99.3488 435.973 98.0341 436.749 96.3961L442.698 97.366C441.491 100.642 439.422 103.185 436.491 104.996C433.603 106.763 430.37 107.647 426.792 107.647ZM462.261 107H455.925V79.3912H444.351V73.572H473.835V79.3912H462.261V107ZM503.77 73.572H510.3L496.334 112.043C495.3 114.931 493.942 117.022 492.261 118.315C490.58 119.608 488.338 120.255 485.537 120.255H480.558L479.976 114.436H485.925C487.175 114.436 488.144 114.155 488.834 113.595C489.524 113.078 490.106 112.151 490.58 110.815L491.291 108.875L476.42 73.572H483.209L493.813 99.3704H494.718L503.77 73.572ZM522.367 107H516.03V73.572H544.48V107H538.143V79.3912H522.367V107ZM575.657 87.2148V73.572H581.994V107H575.657V93.034H559.557V107H553.221V73.572H559.557V87.2148H575.657ZM606.439 107.647C603.034 107.647 599.995 106.914 597.323 105.448C594.65 103.983 592.559 101.935 591.051 99.3057C589.542 96.6763 588.788 93.6805 588.788 90.3183C588.788 86.9561 589.542 83.9603 591.051 81.3309C592.559 78.7015 594.65 76.654 597.323 75.1884C599.995 73.6798 603.034 72.9254 606.439 72.9254C609.845 72.9254 612.883 73.6798 615.556 75.1884C618.229 76.654 620.319 78.7015 621.828 81.3309C623.336 83.9603 624.091 86.9561 624.091 90.3183C624.091 93.6805 623.336 96.6763 621.828 99.3057C620.319 101.935 618.229 103.983 615.556 105.448C612.883 106.914 609.845 107.647 606.439 107.647ZM606.439 101.827C609.715 101.827 612.366 100.771 614.392 98.6592C616.461 96.547 617.496 93.7667 617.496 90.3183C617.496 86.8699 616.461 84.0896 614.392 81.9775C612.366 79.8222 609.715 78.7446 606.439 78.7446C603.163 78.7446 600.512 79.8222 598.486 81.9775C596.46 84.0896 595.447 86.8699 595.447 90.3183C595.447 93.7236 596.46 96.5039 598.486 98.6592C600.512 100.771 603.163 101.827 606.439 101.827ZM668.596 89.4778C670.321 90.1244 671.7 91.1804 672.735 92.646C673.812 94.0685 674.351 95.7496 674.351 97.6893C674.351 99.4566 673.834 101.051 672.799 102.474C671.808 103.896 670.407 105.017 668.596 105.836C666.786 106.612 664.717 107 662.389 107H646.419V73.572H661.807C664.006 73.572 665.967 73.9599 667.691 74.7358C669.415 75.5117 670.752 76.5678 671.7 77.9041C672.691 79.2403 673.187 80.7706 673.187 82.4948C673.187 84.1328 672.778 85.5552 671.959 86.7622C671.183 87.926 670.062 88.8312 668.596 89.4778ZM652.755 78.9386V87.1501H661.807C663.273 87.1501 664.48 86.7837 665.428 86.0509C666.377 85.275 666.851 84.2836 666.851 83.0767C666.851 81.8697 666.377 80.8783 665.428 80.1024C664.48 79.3265 663.273 78.9386 661.807 78.9386H652.755ZM662.389 101.633C664.07 101.633 665.428 101.202 666.463 100.34C667.497 99.4782 668.015 98.3574 668.015 96.9781C668.015 95.5987 667.497 94.478 666.463 93.6159C665.428 92.7538 664.07 92.3227 662.389 92.3227H652.755V101.633H662.389Z" fill="white"/>
<rect x="3.5564" y="3" width="894" height="294" rx="41" stroke="#ABABAB" stroke-width="6"/>
</svg>
