<svg xmlns="http://www.w3.org/2000/svg">
    <symbol id="donate" viewBox="0 0 32 32">
        <path d="M16 3C10.486 3 6 7.486 6 13C6 18.514 10.486 23 16 23C21.514 23 26 18.514 26 13C26 7.486 21.514 3 16 3ZM16 5C20.411 5 24 8.589 24 13C24 17.411 20.411 21 16 21C11.589 21 8 17.411 8 13C8 8.589 11.589 5 16 5ZM15 7V8.19C14.2789 8.45215 13.6819 8.97431 13.326 9.654C13.016 10.2524 12.9228 10.9396 13.062 11.599C13.185 12.1727 13.4704 12.6989 13.884 13.115C14.157 13.388 14.482 13.609 14.84 13.762C15.198 13.915 15.59 14 16 14C16.142 14 16.276 14.027 16.396 14.076C16.5148 14.1243 16.6227 14.1959 16.7134 14.2866C16.8041 14.3773 16.8757 14.4852 16.924 14.604C16.973 14.724 17 14.858 17 15C17.0044 15.197 16.949 15.3907 16.8412 15.5556C16.7334 15.7205 16.5782 15.8489 16.396 15.924C16.276 15.973 16.142 16 16 16C15.857 16 15.724 15.973 15.604 15.924C15.4853 15.8755 15.3775 15.8038 15.287 15.713C15.1943 15.6191 15.1212 15.5077 15.072 15.3853C15.0227 15.2629 14.9982 15.1319 15 15H13C13.0001 15.7781 13.3082 16.5244 13.857 17.076C14.1781 17.4035 14.5688 17.6547 15 17.811V19H17V17.81C17.5042 17.6293 17.9514 17.3178 18.2958 16.9076C18.6401 16.4973 18.8694 16.0029 18.96 15.475C19.0835 14.7251 18.9122 13.9565 18.482 13.33C18.265 13.0105 17.9895 12.735 17.67 12.518C17.3462 12.2983 16.9828 12.1434 16.6 12.062C16.4027 12.0208 16.2016 12 16 12C15.857 12 15.724 11.973 15.604 11.924C15.4852 11.8757 15.3773 11.8041 15.2866 11.7134C15.1959 11.6227 15.1243 11.5148 15.076 11.396C15.0252 11.2702 14.9994 11.1357 15 11C15 10.857 15.027 10.724 15.076 10.604C15.1243 10.4852 15.1959 10.3773 15.2866 10.2866C15.3773 10.1959 15.4852 10.1243 15.604 10.076C15.724 10.027 15.858 10 16 10C16.57 10 17 10.43 17 11H19C19.0002 10.6861 18.9503 10.3741 18.852 10.076C18.7048 9.64271 18.4619 9.24815 18.1412 8.92164C17.8206 8.59513 17.4305 8.34506 17 8.19V7H15ZM2 21V29H4V23H9.38C8.53205 22.433 7.75925 21.761 7.08 21H2ZM24.92 21C24.2408 21.761 23.4679 22.433 22.62 23H28V29H30V21H24.92ZM6 25V27H26V25H6Z" fill="#BCBFBF" />
    </symbol>
    <symbol id="instagram" viewBox="0 0 32 32">
        <g clip-path="url(#clip0)">
            <path d="M16.0053 7.784C11.468 7.784 7.79468 11.4613 7.79468 15.9947C7.79468 20.532 11.472 24.2053 16.0053 24.2053C20.5427 24.2053 24.216 20.528 24.216 15.9947C24.216 11.4573 20.5387 7.784 16.0053 7.784ZM16.0053 21.324C13.06 21.324 10.676 18.9387 10.676 15.9947C10.676 13.0507 13.0613 10.6653 16.0053 10.6653C18.9493 10.6653 21.3347 13.0507 21.3347 15.9947C21.336 18.9387 18.9507 21.324 16.0053 21.324Z" fill="#BCBFBF" />
            <path d="M22.5973 0.10134C19.6533 -0.0359938 12.3613 -0.0293272 9.41467 0.10134C6.82533 0.222673 4.54133 0.848006 2.7 2.68934C-0.377336 5.76668 0.0159978 9.91335 0.0159978 15.9947C0.0159978 22.2187 -0.330669 26.2694 2.7 29.3C5.78933 32.388 9.996 31.984 16.0053 31.984C22.1707 31.984 24.2987 31.988 26.4787 31.144C29.4427 29.9934 31.68 27.344 31.8987 22.5853C32.0373 19.64 32.0293 12.3493 31.8987 9.40268C31.6347 3.78534 28.62 0.378673 22.5973 0.10134ZM27.2573 27.264C25.24 29.2814 22.4413 29.1014 15.9667 29.1014C9.3 29.1014 6.62666 29.2 4.676 27.244C2.42933 25.008 2.836 21.4173 2.836 15.9733C2.836 8.60668 2.08 3.30134 9.47333 2.92267C11.172 2.86267 11.672 2.84267 15.948 2.84267L16.008 2.88267C23.1133 2.88267 28.688 2.13867 29.0227 9.53068C29.0987 11.2173 29.116 11.724 29.116 15.9933C29.1147 22.5827 29.24 25.272 27.2573 27.264Z" fill="#BCBFBF" />
            <path d="M24.5413 9.37868C25.601 9.37868 26.46 8.51967 26.46 7.46002C26.46 6.40037 25.601 5.54135 24.5413 5.54135C23.4817 5.54135 22.6227 6.40037 22.6227 7.46002C22.6227 8.51967 23.4817 9.37868 24.5413 9.37868Z" fill="#BCBFBF" />
        </g>
        <defs>
            <clipPath id="clip0">
                <rect width="32" height="32" fill="white" />
            </clipPath>
        </defs>
    </symbol>
    <symbol id="telegram" viewBox="0 0 32 32">
        <g clip-path="url(#clip0)">
            <path d="M0.553341 14.928L8.37867 18.828C8.68134 18.9774 9.03867 18.9667 9.32801 18.7974L16.2933 14.748L12.0773 18.484C11.8627 18.6747 11.74 18.9467 11.74 19.2334V28.3334C11.74 29.2934 12.9653 29.6974 13.54 28.9347L16.9227 24.4374L25.288 29.2014C25.8747 29.5387 26.6267 29.2 26.7627 28.5294L31.98 2.52935C32.136 1.74802 31.3587 1.11068 30.636 1.40135L0.636007 13.1014C-0.169326 13.416 -0.221326 14.5427 0.553341 14.928ZM29.66 3.92935L25.0747 26.7787L17.148 22.264C16.716 22.0174 16.16 22.1267 15.8533 22.532L13.74 25.3414V19.6827L25.1413 9.58136C26.044 8.78269 25.0067 7.36269 23.976 7.96802L8.78934 16.7974L3.46667 14.1454L29.66 3.92935Z" fill="#BCBFBF" />
        </g>
        <defs>
            <clipPath id="clip0">
                <rect width="32" height="32" fill="white" />
            </clipPath>
        </defs>
    </symbol>
    <symbol id="mail" viewBox="0 0 32 32">
        <path d="M31.978 6.892C31.97 6.824 31.96 6.758 31.938 6.692C31.782 5.74 30.994 5 30 5H2C1.006 5 0.218 5.74 0.062 6.692C0.04 6.758 0.03 6.824 0.022 6.892C0.02 6.93 0 6.962 0 7V25C0 25.038 0.02 25.072 0.022 25.11C0.03 25.178 0.04 25.242 0.062 25.308C0.216 26.258 1.006 27 2 27H30C30.994 27 31.784 26.258 31.938 25.306C31.96 25.24 31.97 25.176 31.978 25.108C31.98 25.072 32 25.038 32 25V7C32 6.962 31.98 6.93 31.978 6.892ZM29.308 7L18.208 15.14L16 16.76L13.794 15.142C13.794 15.142 13.792 15.142 13.792 15.14L2.692 7H29.308ZM2 8.974L11.584 16.002L2 23.028V8.974ZM2.692 25L13.276 17.242L15.408 18.806C15.584 18.936 15.792 19 16 19C16.208 19 16.416 18.936 16.592 18.806L18.724 17.242L29.308 25H2.692ZM30 23.028L20.416 16.002L30 8.974V23.028Z" fill="#BCBFBF" />
    </symbol>
    <symbol id="google-play" viewBox="0 0 506 150">
        <path d="M0 20C0 8.9543 8.95431 0 20 0H486C497.046 0 506 8.95431 506 20V130C506 141.046 497.046 150 486 150H20C8.9543 150 0 141.046 0 130V20Z" fill="black" />
        <path fill-rule="evenodd" clip-rule="evenodd" d="M0 130V20C0 8.95431 8.9543 0 20 0H486C497.046 0 506 8.9543 506 20V130C506 141.046 497.046 150 486 150H20C8.95431 150 0 141.046 0 130ZM3 130V20C3 10.6112 10.6112 3 20 3H486C495.389 3 503 10.6112 503 20V130C503 139.389 495.389 147 486 147H20C10.6112 147 3 139.389 3 130Z" fill="white" fill-opacity="0.3" />
        <path d="M106.692 91.0823C118.673 84.443 127.756 79.3845 128.539 78.9917C131.043 77.647 133.63 74.0898 128.539 71.3269C126.896 70.4582 118.046 65.5563 106.692 59.2363L90.9532 75.277L106.691 91.0823H106.692Z" fill="#FFD900" />
        <path d="M90.9532 75.277L40.8369 126.25C42.0124 126.408 43.3406 126.093 44.9071 125.224C48.1945 123.409 83.0418 104.203 106.693 91.0858L90.9532 75.277Z" fill="#F43249" />
        <path d="M90.9532 75.277L106.691 59.3142C106.691 59.3142 48.432 27.2284 44.9063 25.3352C43.5798 24.5391 42.0913 24.3038 40.7598 24.5391L90.9532 75.2761V75.277Z" fill="#00EE76" />
        <path d="M90.9533 75.2774L40.7589 24.5403C38.7217 25.0154 37 26.8316 37 30.5446V120.244C37 123.644 38.3324 126.093 40.8361 126.329L90.9524 75.2765L90.9533 75.2774Z" fill="#00D3FF" />
        <path d="M256.385 81.4895C247.38 81.4895 239.94 88.5217 239.94 98.1636C239.94 107.727 247.302 114.838 256.386 114.838C265.468 114.838 272.829 107.805 272.829 98.1636C272.829 88.5217 265.468 81.4895 256.385 81.4895ZM256.385 108.203C251.45 108.203 247.146 104.013 247.146 98.0892C247.146 92.0832 251.454 87.9757 256.385 87.9757C261.316 87.9757 265.623 92.0832 265.623 98.0892C265.623 104.013 261.316 108.203 256.385 108.203ZM220.598 81.4895C211.515 81.4895 204.153 88.5217 204.153 98.1636C204.153 107.727 211.515 114.838 220.598 114.838C229.681 114.838 237.043 107.805 237.043 98.1636C237.043 88.5217 229.681 81.4895 220.598 81.4895H220.598ZM220.598 108.203C215.663 108.203 211.36 104.013 211.36 98.0892C211.36 92.0832 215.667 87.9757 220.598 87.9757C225.533 87.9757 229.837 92.0832 229.837 98.0892C229.837 104.013 225.607 108.203 220.598 108.203ZM178.077 86.6267V93.6589H194.677C194.205 97.6098 192.878 100.534 190.919 102.511C188.492 104.96 184.733 107.648 178.077 107.648C167.817 107.648 159.911 99.272 159.911 88.9188C159.911 78.5657 167.822 70.0313 178.077 70.0313C183.635 70.0313 187.631 72.2447 190.607 75.0907L195.538 70.1101C191.386 66.0813 185.828 63 178.077 63C164.058 63 152.312 74.6148 152.312 88.7614C152.312 102.909 164.058 114.524 178.077 114.524C185.672 114.524 191.312 111.996 195.853 107.252C200.473 102.59 201.883 96.0289 201.883 90.7351C201.883 89.0763 201.727 87.5742 201.49 86.3091L178.077 86.6267ZM352.076 92.0789C350.744 88.3642 346.518 81.4895 338.058 81.4895C329.598 81.4895 322.63 88.2076 322.63 98.1636C322.63 107.487 329.598 114.838 338.841 114.838C346.358 114.838 350.666 110.176 352.466 107.487L346.908 103.694C345.027 106.462 342.522 108.277 338.841 108.277C335.16 108.277 332.578 106.618 330.931 103.219L352.778 93.9739L352.076 92.0789ZM329.836 97.692C329.681 91.2889 334.771 87.9713 338.37 87.9713C341.268 87.9713 343.617 89.3939 344.477 91.5286L329.836 97.692ZM312.06 113.733H319.265V64.8941H312.06V113.733ZM300.316 85.2042H300.082C298.439 83.227 295.385 81.4895 291.467 81.4895C283.244 81.4895 275.805 88.8401 275.805 98.1636C275.805 107.487 283.322 114.76 291.467 114.76C295.381 114.76 298.435 113.021 300.082 110.966H300.316V113.336C300.316 119.74 296.947 123.135 291.545 123.135C287.159 123.135 284.417 119.896 283.322 117.208L277.06 119.896C278.859 124.322 283.638 129.774 291.545 129.774C300.001 129.774 307.129 124.716 307.129 112.468V82.5157H300.316V85.2042ZM292.094 108.203C287.159 108.203 283.011 104.013 283.011 98.1679C283.011 92.3229 287.163 88.0536 292.094 88.0536C296.951 88.0536 300.865 92.3229 300.865 98.1679C300.862 103.934 296.947 108.203 292.094 108.203ZM385.67 64.895H368.443V113.733H375.649V95.2389H385.67C393.659 95.2389 401.488 89.3896 401.488 80.0669C401.488 70.7435 393.659 64.8941 385.67 64.8941V64.895ZM385.903 88.4473H375.722V71.6901H385.903C391.228 71.6901 394.36 76.1948 394.36 80.0661C394.286 83.8595 391.232 88.4473 385.903 88.4473ZM430.229 81.4107C425.06 81.4107 419.657 83.7029 417.464 88.9188L423.809 91.6073C425.22 88.9188 427.724 88.0501 430.388 88.0501C434.147 88.0501 437.905 90.3414 437.983 94.3702V94.8461C436.651 94.0561 433.913 92.9476 430.466 92.9476C423.576 92.9476 416.603 96.8198 416.603 103.934C416.603 110.494 422.244 114.681 428.507 114.681C433.363 114.681 436.024 112.468 437.668 109.861H437.902V113.655H444.869V94.9239C444.792 86.3117 438.451 81.4099 430.229 81.4099V81.4107ZM429.368 108.124C427.019 108.124 423.728 106.937 423.728 104.016C423.728 100.223 427.798 98.8004 431.323 98.8004C434.454 98.8004 435.943 99.5117 437.902 100.459C437.353 104.964 433.516 108.124 429.368 108.124ZM470.008 82.52L461.785 103.619H461.551L453.018 82.5192H445.267L458.108 112.074L450.824 128.591H458.341L477.995 82.5192H470.007L470.008 82.52ZM405.484 113.733H412.689V64.8941H405.484V113.733Z" fill="white" />
        <path d="M166.472 49.512C164.296 49.512 162.291 48.9893 160.456 47.944C158.621 46.8987 157.16 45.4693 156.072 43.656C155.005 41.8213 154.472 39.784 154.472 37.544C154.472 35.304 155.005 33.2773 156.072 31.464C157.16 29.6293 158.621 28.1893 160.456 27.144C162.291 26.0987 164.296 25.576 166.472 25.576C168.2 25.576 169.811 25.8853 171.304 26.504C172.797 27.1227 174.045 27.9867 175.048 29.096L172.552 31.592C171.805 30.76 170.909 30.12 169.864 29.672C168.84 29.224 167.699 29 166.44 29C164.968 29 163.592 29.352 162.312 30.056C161.032 30.76 160.008 31.7627 159.24 33.064C158.472 34.3653 158.088 35.8587 158.088 37.544C158.088 39.2293 158.472 40.7227 159.24 42.024C160.008 43.3253 161.032 44.328 162.312 45.032C163.592 45.736 164.979 46.088 166.472 46.088C167.837 46.088 168.979 45.8853 169.896 45.48C170.813 45.0747 171.635 44.5307 172.36 43.848C172.829 43.3787 173.224 42.792 173.544 42.088C173.885 41.384 174.109 40.616 174.216 39.784H166.44V36.584H177.608C177.715 37.1813 177.768 37.8 177.768 38.44C177.768 39.8907 177.544 41.288 177.096 42.632C176.648 43.9547 175.933 45.1067 174.952 46.088C172.797 48.3707 169.971 49.512 166.472 49.512Z" fill="white" />
        <path d="M181.105 26.088H195.025V29.512H184.689V35.848H194.001V39.24H184.689V45.576H195.025V49H181.105V26.088Z" fill="white" />
        <path d="M203.32 29.512H196.92V26.088H213.304V29.512H206.904V49H203.32V29.512Z" fill="white" />
        <path d="M222.674 26.088H226.258V49H222.674V26.088Z" fill="white" />
        <path d="M235.326 29.512H228.926V26.088H245.31V29.512H238.91V49H235.326V29.512Z" fill="white" />
        <path d="M264.775 49.512C262.557 49.512 260.541 48.9893 258.727 47.944C256.914 46.8773 255.485 45.4267 254.439 43.592C253.415 41.7573 252.903 39.7413 252.903 37.544C252.903 35.3467 253.415 33.3413 254.439 31.528C255.485 29.6933 256.914 28.2427 258.727 27.176C260.541 26.1093 262.557 25.576 264.775 25.576C266.994 25.576 268.999 26.1093 270.791 27.176C272.605 28.2427 274.034 29.6933 275.079 31.528C276.125 33.3413 276.647 35.3467 276.647 37.544C276.647 39.7413 276.125 41.7573 275.079 43.592C274.055 45.4267 272.637 46.8773 270.823 47.944C269.01 48.9893 266.994 49.512 264.775 49.512ZM264.775 46.088C266.29 46.088 267.677 45.7253 268.935 45C270.194 44.2747 271.186 43.272 271.911 41.992C272.637 40.6907 272.999 39.208 272.999 37.544C272.999 35.88 272.637 34.408 271.911 33.128C271.186 31.8267 270.194 30.8133 268.935 30.088C267.677 29.3627 266.29 29 264.775 29C263.261 29 261.874 29.3627 260.615 30.088C259.357 30.8133 258.354 31.8267 257.607 33.128C256.882 34.408 256.519 35.88 256.519 37.544C256.519 39.208 256.882 40.6907 257.607 41.992C258.354 43.272 259.357 44.2747 260.615 45C261.874 45.7253 263.261 46.088 264.775 46.088Z" fill="white" />
        <path d="M279.943 26.088H284.199L294.439 42.76H294.631L294.439 38.344V26.088H297.991V49H294.247L283.495 31.464H283.303L283.495 35.88V49H279.943V26.088Z" fill="white" />
    </symbol>

</svg>