<?xml version="1.0" standalone="no"?>
<!DOCTYPE svg PUBLIC "-//W3C//DTD SVG 20010904//EN"
 "http://www.w3.org/TR/2001/REC-SVG-20010904/DTD/svg10.dtd">
<svg version="1.0" xmlns="http://www.w3.org/2000/svg"
 width="1280.000000pt" height="1280.000000pt" viewBox="0 0 1280.000000 1280.000000"
 preserveAspectRatio="xMidYMid meet">
<g transform="translate(0.000000,1280.000000) scale(0.100000,-0.100000)"
fill="#000000" stroke="none">
<path d="M5445 9036 c-111 -37 -163 -63 -170 -85 -11 -35 44 -211 161 -519 41
-106 74 -194 74 -197 0 -14 -41 0 -140 50 -122 61 -143 63 -194 16 -61 -55
-83 -147 -46 -194 30 -38 157 -116 346 -210 l171 -85 46 -104 c78 -175 347
-873 347 -899 0 -18 -32 -8 -148 45 -106 49 -120 59 -150 103 -38 56 -111 226
-172 401 -56 160 -57 160 -180 128 -57 -15 -100 -32 -108 -43 -19 -25 -10 -98
27 -213 17 -53 27 -98 22 -103 -13 -13 -362 149 -388 181 -33 39 -113 208
-177 374 -32 80 -64 149 -72 152 -22 8 -60 -2 -129 -37 -73 -36 -105 -64 -105
-91 0 -12 14 -59 30 -105 16 -46 27 -87 24 -92 -6 -11 -10 -9 -276 115 -126
58 -240 106 -254 106 -38 0 -78 -48 -135 -164 -55 -112 -60 -145 -26 -177 31
-29 179 -102 392 -194 185 -80 208 -92 200 -105 -2 -4 -55 -29 -117 -55 -141
-60 -152 -69 -144 -115 6 -39 52 -157 68 -177 6 -7 22 -13 37 -13 28 0 188 52
417 135 l131 47 79 -32 c162 -64 264 -113 264 -125 0 -7 -32 -23 -72 -35 -105
-31 -118 -42 -117 -93 0 -23 10 -76 23 -117 29 -100 44 -107 151 -80 43 11
137 41 209 66 72 25 152 53 178 62 l47 16 137 -67 c84 -42 134 -72 131 -80 -2
-6 -87 -45 -188 -85 -206 -81 -864 -322 -880 -322 -6 0 -66 31 -133 69 -66 38
-168 92 -225 121 -125 62 -130 61 -196 -38 -43 -64 -46 -74 -43 -123 l3 -54
98 -47 c55 -27 97 -54 97 -62 0 -8 -22 -22 -52 -32 -66 -21 -505 -197 -546
-218 -17 -9 -33 -25 -37 -36 -16 -52 83 -301 129 -321 19 -9 69 7 292 91 380
144 383 145 391 136 4 -4 -9 -37 -29 -74 -20 -37 -47 -86 -60 -109 -32 -58
-20 -87 61 -141 112 -75 142 -70 213 34 27 39 90 152 141 250 70 135 100 184
124 200 58 38 440 185 940 360 29 10 55 15 59 11 13 -13 -79 -237 -111 -268
-41 -41 -245 -142 -453 -223 -142 -56 -173 -72 -178 -91 -6 -23 61 -170 94
-207 23 -26 52 -22 170 23 140 54 142 54 142 37 0 -16 -146 -334 -163 -356
-22 -28 -212 -112 -367 -162 -91 -29 -171 -58 -177 -63 -7 -5 -13 -24 -13 -42
0 -49 38 -186 58 -208 22 -25 73 -19 200 21 51 17 94 26 97 22 5 -8 -121 -292
-191 -432 -41 -82 -43 -119 -9 -147 48 -37 223 -121 253 -121 64 0 165 160
277 440 21 52 43 101 48 108 16 20 30 -1 72 -110 26 -69 43 -99 57 -104 30 -9
86 4 155 37 47 22 64 36 69 55 9 34 -22 147 -92 336 -31 84 -58 162 -61 174
-8 34 130 354 153 354 7 0 24 -35 39 -79 14 -44 33 -82 41 -85 47 -18 150 6
215 48 31 21 39 33 39 56 0 38 -40 165 -101 318 -27 67 -49 130 -49 139 0 20
139 343 156 362 10 11 14 10 22 -5 5 -11 74 -199 152 -419 l142 -400 -132
-262 c-81 -162 -130 -271 -128 -285 2 -15 26 -39 72 -70 59 -41 77 -48 117
-48 41 0 51 4 78 35 17 20 52 79 77 131 25 53 51 93 57 91 6 -2 22 -30 34 -63
309 -830 304 -819 333 -834 14 -7 32 -6 67 6 80 27 247 95 257 104 20 19 2 79
-134 450 -131 359 -150 420 -133 420 3 0 34 -16 69 -35 34 -19 73 -35 86 -35
34 0 71 43 113 132 30 63 35 80 26 97 -13 24 -132 96 -319 194 -125 65 -134
72 -157 117 -53 105 -305 768 -305 803 0 9 4 17 9 17 7 0 234 -92 308 -125 18
-8 47 -34 64 -57 44 -60 146 -272 194 -402 49 -135 60 -145 142 -121 160 47
177 79 124 232 -19 52 -26 85 -19 89 5 3 86 -27 180 -67 l170 -73 42 -86 c24
-47 78 -167 121 -268 85 -201 90 -206 163 -183 58 17 152 83 159 110 3 14 -4
55 -16 95 -30 95 -31 112 -7 108 11 -2 103 -44 205 -93 196 -94 207 -96 262
-58 14 10 37 39 51 66 29 54 68 173 68 208 0 46 -96 101 -402 230 -76 31 -138
63 -138 70 0 7 60 37 133 66 l132 54 -1 48 c0 62 -69 198 -106 211 -21 7 -54
-3 -179 -57 -214 -91 -334 -137 -361 -137 -30 1 -380 152 -385 167 -2 6 21 21
51 32 78 29 170 76 185 95 20 24 8 88 -31 165 -49 99 -58 98 -381 -31 l-197
-79 -118 47 c-179 71 -252 106 -252 118 0 7 125 56 278 111 152 54 383 139
512 188 129 49 244 91 255 94 12 3 128 -49 304 -137 188 -93 293 -140 310
-138 20 2 35 20 73 86 55 95 60 133 24 165 -14 12 -79 54 -146 92 -67 39 -122
75 -122 80 1 15 7 17 237 101 116 41 253 97 305 122 113 56 116 64 75 181 -37
104 -71 168 -98 186 -33 21 -63 13 -474 -136 -50 -19 -95 -30 -99 -26 -4 4 3
29 15 56 28 58 23 96 -17 134 -31 30 -107 66 -139 67 -55 0 -127 -98 -209
-284 l-53 -121 -101 -42 c-56 -24 -300 -117 -543 -208 -243 -91 -459 -173
-480 -181 -34 -13 -38 -13 -44 3 -4 9 5 38 19 67 15 28 32 71 38 96 27 104
185 208 437 290 71 23 134 47 142 53 22 19 10 124 -23 191 -40 82 -55 86 -173
47 -53 -17 -100 -28 -104 -24 -13 14 109 295 139 321 39 34 244 131 412 196
194 75 190 73 197 92 3 9 -4 59 -16 111 -28 114 -43 129 -123 119 -29 -4 -92
-23 -141 -42 -109 -42 -121 -43 -113 -9 4 14 56 130 116 257 61 128 110 243
110 256 0 38 -27 79 -76 112 -59 41 -167 90 -198 90 -50 0 -113 -99 -235 -373
-43 -95 -82 -172 -87 -171 -5 0 -29 40 -54 89 -25 49 -53 94 -62 99 -13 8 -36
1 -99 -29 -104 -51 -129 -70 -129 -102 0 -13 32 -102 71 -196 99 -241 98 -232
70 -318 -32 -99 -182 -394 -201 -394 -10 0 -26 36 -50 108 -41 128 -49 135
-130 119 -105 -22 -159 -42 -171 -63 -16 -30 9 -125 99 -372 l75 -209 -38 -94
c-45 -111 -73 -160 -85 -148 -5 5 -38 92 -75 194 -36 102 -127 348 -201 546
l-136 362 112 222 c79 158 109 228 105 244 -13 43 -68 82 -143 101 -103 25
-115 19 -160 -73 -20 -42 -43 -77 -51 -77 -8 0 -19 14 -24 30 -17 54 -169 459
-193 513 l-23 52 -53 0 c-29 -1 -84 -11 -123 -24z"/>
</g>
</svg>
