<?xml version="1.0" standalone="no"?>
<!DOCTYPE svg PUBLIC "-//W3C//DTD SVG 20010904//EN" "http://www.w3.org/TR/2001/REC-SVG-20010904/DTD/svg10.dtd">
<svg version="1.0" xmlns="http://www.w3.org/2000/svg" viewBox="0 0 1280.000000 1280.000000" preserveAspectRatio="xMidYMid meet">
    <g transform="translate(0.000000,1280.000000) scale(0.100000,-0.100000)" fill="#ffffff" stroke="none">
        <path d="M5479 9055 c-92 -25 -191 -69 -206 -91 -13 -21 -12 -32 6 -104 24
-90 105 -323 175 -500 25 -63 46 -118 46 -123 0 -4 -54 20 -120 53 -129 65
-146 67 -202 28 -34 -23 -78 -112 -78 -157 0 -66 97 -136 392 -282 l147 -73
50 -111 c87 -196 345 -870 339 -886 -2 -4 -59 19 -128 51 -87 41 -131 67 -143
87 -45 68 -103 206 -213 511 -23 62 -44 67 -156 37 -116 -30 -133 -46 -124
-123 3 -29 20 -94 36 -144 16 -51 28 -94 25 -96 -8 -8 -359 161 -376 181 -31
37 -109 205 -170 362 -65 170 -77 184 -136 165 -55 -18 -145 -65 -170 -89 -30
-28 -29 -40 7 -146 16 -49 28 -90 27 -92 -2 -2 -115 49 -250 112 -138 64 -259
115 -276 115 -41 0 -84 -52 -142 -175 -59 -121 -62 -154 -16 -188 46 -35 184
-103 392 -192 99 -43 184 -81 188 -85 5 -4 -47 -31 -115 -60 -68 -28 -129 -59
-136 -68 -8 -11 -11 -30 -8 -52 7 -45 53 -160 73 -182 30 -33 24 -35 535 144
l57 19 91 -36 c50 -20 127 -53 173 -74 l82 -38 -87 -27 c-48 -14 -94 -33 -102
-42 -20 -20 -20 -75 -1 -139 9 -27 20 -66 25 -86 20 -75 61 -71 382 38 l196
66 137 -65 c74 -37 132 -69 128 -71 -34 -21 -747 -290 -988 -373 l-81 -28
-124 71 c-211 119 -327 174 -354 167 -16 -4 -42 -32 -75 -83 -44 -67 -51 -84
-51 -128 0 -61 7 -68 125 -123 75 -35 87 -43 70 -51 -11 -4 -87 -33 -168 -64
-82 -31 -214 -84 -295 -119 -176 -74 -182 -81 -158 -179 22 -84 91 -223 122
-244 25 -16 34 -13 351 106 178 68 327 120 330 118 3 -3 -20 -50 -51 -105 -31
-55 -56 -109 -56 -121 0 -46 142 -151 205 -151 55 0 116 85 251 352 48 95 94
174 107 182 75 49 978 388 993 373 10 -10 -79 -222 -105 -250 -35 -39 -239
-139 -450 -222 -137 -54 -175 -74 -184 -92 -9 -21 -4 -39 41 -128 40 -81 57
-106 76 -111 30 -7 107 14 216 61 45 18 79 28 77 22 -39 -93 -164 -345 -176
-355 -45 -35 -194 -101 -348 -152 -95 -31 -179 -62 -187 -70 -21 -17 -20 -55
6 -157 27 -111 43 -128 112 -119 28 4 89 20 136 36 47 15 86 27 88 26 3 -4
-74 -176 -157 -351 -80 -166 -87 -198 -50 -226 48 -36 237 -129 264 -129 41 0
80 33 130 114 45 73 126 245 180 384 19 47 31 68 36 60 5 -7 23 -53 40 -103
42 -119 51 -129 110 -122 70 9 176 60 191 92 16 35 -9 133 -82 330 -84 225
-83 187 -5 371 37 87 71 163 75 167 4 5 20 -27 34 -71 15 -44 34 -86 42 -93
21 -17 121 -6 180 20 64 29 94 58 94 92 0 39 -42 170 -103 319 -28 69 -50 130
-50 135 0 6 28 75 63 155 34 80 69 161 77 180 11 26 17 30 23 20 5 -8 72 -195
150 -415 l142 -400 -131 -260 c-72 -144 -131 -270 -131 -281 0 -28 8 -36 85
-87 58 -39 78 -47 116 -47 63 0 94 33 161 169 l51 104 18 -49 c10 -27 59 -161
110 -299 196 -536 219 -585 272 -570 66 20 289 110 299 122 6 7 10 26 10 41
-1 15 -67 205 -146 422 -79 217 -143 397 -141 399 2 2 33 -13 69 -33 76 -43
104 -45 140 -11 37 35 107 184 100 212 -7 25 -212 149 -370 225 -98 47 -97 46
-185 265 -50 124 -239 629 -239 637 0 2 53 -18 118 -46 64 -27 140 -59 169
-69 39 -15 60 -32 86 -67 49 -66 125 -224 188 -386 61 -159 65 -163 155 -139
111 28 164 69 164 123 0 15 -13 66 -30 115 -16 49 -30 90 -30 91 0 1 78 -32
174 -74 l175 -75 54 -116 c30 -64 81 -179 113 -256 71 -174 75 -179 134 -171
51 7 174 76 191 107 14 27 5 88 -25 162 l-24 58 21 -7 c12 -4 105 -46 207 -95
175 -84 187 -88 222 -79 60 17 107 86 147 214 27 88 27 108 -5 139 -30 30
-171 101 -363 181 -73 31 -140 60 -148 65 -11 6 21 22 108 57 155 60 163 66
156 122 -5 45 -52 151 -88 196 -27 34 -51 33 -142 -9 -132 -59 -402 -165 -425
-165 -25 0 -382 150 -382 160 0 4 12 11 28 15 15 3 68 26 119 50 74 35 93 48
99 69 11 46 -31 169 -74 219 -31 35 -114 14 -399 -103 l-152 -62 -138 55
c-166 67 -236 98 -231 102 2 2 138 51 302 110 165 59 376 136 470 172 94 35
196 74 228 86 l56 21 287 -142 c157 -78 297 -142 309 -142 28 0 42 16 95 107
48 83 53 129 19 160 -13 11 -68 46 -123 78 -165 96 -161 93 -145 99 8 3 83 30
165 60 276 99 419 160 458 194 24 21 21 58 -9 144 -41 115 -82 188 -109 198
-37 14 -196 -36 -558 -176 -16 -6 -15 0 8 46 33 65 28 103 -18 148 -34 32
-109 71 -140 72 -64 1 -142 -103 -224 -297 l-48 -114 -175 -68 c-184 -73 -977
-371 -985 -371 -8 0 24 73 40 90 8 9 15 27 15 41 1 115 161 231 443 320 73 24
138 47 146 53 23 18 9 137 -26 204 -44 86 -63 92 -181 53 -52 -17 -96 -30 -98
-28 -8 8 120 292 140 309 37 32 275 144 431 203 83 31 159 65 170 76 17 17 18
23 7 76 -25 120 -45 166 -77 176 -39 13 -125 -5 -234 -49 -47 -19 -86 -34 -88
-34 -4 0 13 38 129 285 59 126 108 241 108 255 0 60 -69 124 -195 181 -36 16
-75 29 -88 29 -54 0 -118 -98 -239 -367 -44 -98 -81 -180 -84 -182 -2 -2 -23
39 -48 92 -57 124 -61 125 -194 58 -79 -39 -103 -57 -108 -76 -7 -30 11 -87
93 -282 34 -84 63 -164 63 -178 0 -42 -56 -181 -131 -324 -39 -75 -74 -139
-78 -143 -3 -4 -22 42 -40 103 -45 144 -51 149 -164 125 -171 -37 -181 -50
-143 -187 14 -52 53 -168 87 -259 33 -91 63 -175 66 -188 5 -21 -80 -236 -97
-247 -4 -3 -31 62 -60 143 -29 81 -119 328 -202 549 l-149 401 111 224 112
224 -15 35 c-19 47 -68 76 -160 96 -97 21 -111 13 -157 -92 -18 -42 -36 -72
-40 -68 -4 4 -22 51 -40 103 -53 152 -170 453 -186 478 -12 18 -23 22 -62 21
-26 0 -68 -7 -93 -14z" />
    </g>
</svg>