<svg xmlns="http://www.w3.org/2000/svg">
    <symbol id="donate" viewBox="0 0 32 32">
        <path d="M16 3C10.486 3 6 7.486 6 13C6 18.514 10.486 23 16 23C21.514 23 26 18.514 26 13C26 7.486 21.514 3 16 3ZM16 5C20.411 5 24 8.589 24 13C24 17.411 20.411 21 16 21C11.589 21 8 17.411 8 13C8 8.589 11.589 5 16 5ZM15 7V8.19C14.2789 8.45215 13.6819 8.97431 13.326 9.654C13.016 10.2524 12.9228 10.9396 13.062 11.599C13.185 12.1727 13.4704 12.6989 13.884 13.115C14.157 13.388 14.482 13.609 14.84 13.762C15.198 13.915 15.59 14 16 14C16.142 14 16.276 14.027 16.396 14.076C16.5148 14.1243 16.6227 14.1959 16.7134 14.2866C16.8041 14.3773 16.8757 14.4852 16.924 14.604C16.973 14.724 17 14.858 17 15C17.0044 15.197 16.949 15.3907 16.8412 15.5556C16.7334 15.7205 16.5782 15.8489 16.396 15.924C16.276 15.973 16.142 16 16 16C15.857 16 15.724 15.973 15.604 15.924C15.4853 15.8755 15.3775 15.8038 15.287 15.713C15.1943 15.6191 15.1212 15.5077 15.072 15.3853C15.0227 15.2629 14.9982 15.1319 15 15H13C13.0001 15.7781 13.3082 16.5244 13.857 17.076C14.1781 17.4035 14.5688 17.6547 15 17.811V19H17V17.81C17.5042 17.6293 17.9514 17.3178 18.2958 16.9076C18.6401 16.4973 18.8694 16.0029 18.96 15.475C19.0835 14.7251 18.9122 13.9565 18.482 13.33C18.265 13.0105 17.9895 12.735 17.67 12.518C17.3462 12.2983 16.9828 12.1434 16.6 12.062C16.4027 12.0208 16.2016 12 16 12C15.857 12 15.724 11.973 15.604 11.924C15.4852 11.8757 15.3773 11.8041 15.2866 11.7134C15.1959 11.6227 15.1243 11.5148 15.076 11.396C15.0252 11.2702 14.9994 11.1357 15 11C15 10.857 15.027 10.724 15.076 10.604C15.1243 10.4852 15.1959 10.3773 15.2866 10.2866C15.3773 10.1959 15.4852 10.1243 15.604 10.076C15.724 10.027 15.858 10 16 10C16.57 10 17 10.43 17 11H19C19.0002 10.6861 18.9503 10.3741 18.852 10.076C18.7048 9.64271 18.4619 9.24815 18.1412 8.92164C17.8206 8.59513 17.4305 8.34506 17 8.19V7H15ZM2 21V29H4V23H9.38C8.53205 22.433 7.75925 21.761 7.08 21H2ZM24.92 21C24.2408 21.761 23.4679 22.433 22.62 23H28V29H30V21H24.92ZM6 25V27H26V25H6Z" fill="#BCBFBF" />
    </symbol>
    <symbol id="instagram" viewBox="0 0 32 32">
        <g clip-path="url(#clip0)">
            <path d="M16.0053 7.784C11.468 7.784 7.79468 11.4613 7.79468 15.9947C7.79468 20.532 11.472 24.2053 16.0053 24.2053C20.5427 24.2053 24.216 20.528 24.216 15.9947C24.216 11.4573 20.5387 7.784 16.0053 7.784ZM16.0053 21.324C13.06 21.324 10.676 18.9387 10.676 15.9947C10.676 13.0507 13.0613 10.6653 16.0053 10.6653C18.9493 10.6653 21.3347 13.0507 21.3347 15.9947C21.336 18.9387 18.9507 21.324 16.0053 21.324Z" fill="#BCBFBF" />
            <path d="M22.5973 0.10134C19.6533 -0.0359938 12.3613 -0.0293272 9.41467 0.10134C6.82533 0.222673 4.54133 0.848006 2.7 2.68934C-0.377336 5.76668 0.0159978 9.91335 0.0159978 15.9947C0.0159978 22.2187 -0.330669 26.2694 2.7 29.3C5.78933 32.388 9.996 31.984 16.0053 31.984C22.1707 31.984 24.2987 31.988 26.4787 31.144C29.4427 29.9934 31.68 27.344 31.8987 22.5853C32.0373 19.64 32.0293 12.3493 31.8987 9.40268C31.6347 3.78534 28.62 0.378673 22.5973 0.10134ZM27.2573 27.264C25.24 29.2814 22.4413 29.1014 15.9667 29.1014C9.3 29.1014 6.62666 29.2 4.676 27.244C2.42933 25.008 2.836 21.4173 2.836 15.9733C2.836 8.60668 2.08 3.30134 9.47333 2.92267C11.172 2.86267 11.672 2.84267 15.948 2.84267L16.008 2.88267C23.1133 2.88267 28.688 2.13867 29.0227 9.53068C29.0987 11.2173 29.116 11.724 29.116 15.9933C29.1147 22.5827 29.24 25.272 27.2573 27.264Z" fill="#BCBFBF" />
            <path d="M24.5413 9.37868C25.601 9.37868 26.46 8.51967 26.46 7.46002C26.46 6.40037 25.601 5.54135 24.5413 5.54135C23.4817 5.54135 22.6227 6.40037 22.6227 7.46002C22.6227 8.51967 23.4817 9.37868 24.5413 9.37868Z" fill="#BCBFBF" />
        </g>
        <defs>
            <clipPath id="clip0">
                <rect width="32" height="32" fill="white" />
            </clipPath>
        </defs>
    </symbol>
    <symbol id="telegram" viewBox="0 0 32 32">
        <g clip-path="url(#clip0)">
            <path d="M0.553341 14.928L8.37867 18.828C8.68134 18.9774 9.03867 18.9667 9.32801 18.7974L16.2933 14.748L12.0773 18.484C11.8627 18.6747 11.74 18.9467 11.74 19.2334V28.3334C11.74 29.2934 12.9653 29.6974 13.54 28.9347L16.9227 24.4374L25.288 29.2014C25.8747 29.5387 26.6267 29.2 26.7627 28.5294L31.98 2.52935C32.136 1.74802 31.3587 1.11068 30.636 1.40135L0.636007 13.1014C-0.169326 13.416 -0.221326 14.5427 0.553341 14.928ZM29.66 3.92935L25.0747 26.7787L17.148 22.264C16.716 22.0174 16.16 22.1267 15.8533 22.532L13.74 25.3414V19.6827L25.1413 9.58136C26.044 8.78269 25.0067 7.36269 23.976 7.96802L8.78934 16.7974L3.46667 14.1454L29.66 3.92935Z" fill="#BCBFBF" />
        </g>
        <defs>
            <clipPath id="clip0">
                <rect width="32" height="32" fill="white" />
            </clipPath>
        </defs>
    </symbol>
    <symbol id="mail" viewBox="0 0 32 32">
        <path d="M31.978 6.892C31.97 6.824 31.96 6.758 31.938 6.692C31.782 5.74 30.994 5 30 5H2C1.006 5 0.218 5.74 0.062 6.692C0.04 6.758 0.03 6.824 0.022 6.892C0.02 6.93 0 6.962 0 7V25C0 25.038 0.02 25.072 0.022 25.11C0.03 25.178 0.04 25.242 0.062 25.308C0.216 26.258 1.006 27 2 27H30C30.994 27 31.784 26.258 31.938 25.306C31.96 25.24 31.97 25.176 31.978 25.108C31.98 25.072 32 25.038 32 25V7C32 6.962 31.98 6.93 31.978 6.892ZM29.308 7L18.208 15.14L16 16.76L13.794 15.142C13.794 15.142 13.792 15.142 13.792 15.14L2.692 7H29.308ZM2 8.974L11.584 16.002L2 23.028V8.974ZM2.692 25L13.276 17.242L15.408 18.806C15.584 18.936 15.792 19 16 19C16.208 19 16.416 18.936 16.592 18.806L18.724 17.242L29.308 25H2.692ZM30 23.028L20.416 16.002L30 8.974V23.028Z" fill="#BCBFBF" />
    </symbol>
</svg>